<?xml version="1.0" encoding="utf-8"?>
<!-- Generator: Adobe Illustrator 25.0.1, SVG Export Plug-In . SVG Version: 6.00 Build 0)  -->
<svg version="1.1" id="Capa_1" xmlns="http://www.w3.org/2000/svg" xmlns:xlink="http://www.w3.org/1999/xlink" x="0px" y="0px"
	 viewBox="0 0 122.2 122.2" style="enable-background:new 0 0 122.2 122.2;" xml:space="preserve">
<style type="text/css">
	.st0{clip-path:url(#SVGID_2_);}
	.st1{fill:#688BC1;}
	.st2{fill:#FFFFFF;}
	.st3{fill:none;stroke:#A74602;stroke-width:5;stroke-miterlimit:10;}
	.st4{fill:#FFC200;}
	.st5{fill:none;stroke:#FFFFFF;stroke-width:5;stroke-linecap:round;stroke-miterlimit:10;}
	.st6{fill:none;stroke:#F3B304;stroke-width:5;stroke-linecap:round;stroke-miterlimit:10;}
	.st7{fill:#6385AD;}
	.st8{fill:#59221D;}
	.st9{fill:none;stroke:#59221D;stroke-width:5;stroke-linecap:round;stroke-linejoin:round;}
	.st10{fill:#F5BBBB;}
	.st11{fill:#FED4C7;}
	.st12{fill:none;stroke:#59221D;stroke-width:4;stroke-linecap:round;stroke-linejoin:round;}
	.st13{fill:#A74602;}
	.st14{fill:#FFFFFF;stroke:#59221D;stroke-width:5;stroke-linejoin:round;}
	.st15{fill:#98C8DB;}
</style>
<g>
	<g>
		<defs>
			<rect id="SVGID_1_" width="122.2" height="122.2"/>
		</defs>
		<clipPath id="SVGID_2_">
			<use xlink:href="#SVGID_1_"  style="overflow:visible;"/>
		</clipPath>
		<g id="Layer_2" class="st0">
			<g id="Слой_1">
				<g id="CHARACTER">
					<g id="PATTERN-2">
						<circle class="st1" cx="-538.7" cy="863.3" r="5.4"/>
						<circle class="st1" cx="-504.3" cy="863.3" r="5.4"/>
						<circle class="st1" cx="-470" cy="863.3" r="5.4"/>
						<circle class="st1" cx="-435.7" cy="863.3" r="5.4"/>
						<circle class="st1" cx="-401.3" cy="863.3" r="5.4"/>
						<circle class="st1" cx="-367" cy="863.3" r="5.4"/>
						<circle class="st1" cx="-332.7" cy="863.3" r="5.4"/>
						<circle class="st1" cx="-744.7" cy="863.3" r="5.4"/>
						<ellipse class="st1" cx="-710.5" cy="863.3" rx="5.4" ry="5.4"/>
						<circle class="st1" cx="-676" cy="863.3" r="5.4"/>
						<circle class="st1" cx="-641.7" cy="863.3" r="5.4"/>
						<circle class="st1" cx="-607.3" cy="863.3" r="5.4"/>
						<circle class="st1" cx="-573" cy="863.3" r="5.4"/>
						<circle class="st1" cx="-555.8" cy="881.2" r="5.4"/>
						<circle class="st1" cx="-521.5" cy="881.2" r="5.4"/>
						<circle class="st1" cx="-487.2" cy="881.2" r="5.4"/>
						<circle class="st1" cx="-452.8" cy="881.2" r="5.4"/>
						<circle class="st1" cx="-418.5" cy="881.2" r="5.4"/>
						<circle class="st1" cx="-384.2" cy="881.2" r="5.4"/>
						
							<ellipse transform="matrix(0.9239 -0.3827 0.3827 0.9239 -363.8635 -66.7878)" class="st1" cx="-349.8" cy="881.2" rx="5.4" ry="5.4"/>
						<circle class="st1" cx="-761.9" cy="881.2" r="5.4"/>
						<circle class="st1" cx="-727.5" cy="881.2" r="5.4"/>
						<circle class="st1" cx="-693.2" cy="881.2" r="5.4"/>
						<circle class="st1" cx="-658.9" cy="881.2" r="5.4"/>
						<circle class="st1" cx="-624.5" cy="881.2" r="5.4"/>
						<circle class="st1" cx="-590.2" cy="881.2" r="5.4"/>
						<circle class="st1" cx="-538.7" cy="899.1" r="5.4"/>
						<circle class="st1" cx="-504.3" cy="899.1" r="5.4"/>
						<circle class="st1" cx="-470" cy="899.1" r="5.4"/>
						<circle class="st1" cx="-435.7" cy="899.1" r="5.4"/>
						<circle class="st1" cx="-401.3" cy="899.1" r="5.4"/>
						<circle class="st1" cx="-367" cy="899.1" r="5.4"/>
						<circle class="st1" cx="-332.7" cy="899.1" r="5.4"/>
						<circle class="st1" cx="-779" cy="899.1" r="5.4"/>
						<circle class="st1" cx="-744.7" cy="899.1" r="5.4"/>
						<ellipse class="st1" cx="-710.5" cy="899.1" rx="5.4" ry="5.4"/>
						<circle class="st1" cx="-676" cy="899.1" r="5.4"/>
						<circle class="st1" cx="-641.7" cy="899.1" r="5.4"/>
						<circle class="st1" cx="-607.3" cy="899.1" r="5.4"/>
						<circle class="st1" cx="-573" cy="899.1" r="5.4"/>
						<circle class="st1" cx="-555.8" cy="917" r="5.4"/>
						<circle class="st1" cx="-521.5" cy="917" r="5.4"/>
						<circle class="st1" cx="-487.2" cy="917" r="5.4"/>
						<circle class="st1" cx="-452.8" cy="917" r="5.4"/>
						<circle class="st1" cx="-418.5" cy="917" r="5.4"/>
						<circle class="st1" cx="-384.2" cy="917" r="5.4"/>
						
							<ellipse transform="matrix(0.9239 -0.3827 0.3827 0.9239 -377.5642 -64.0626)" class="st1" cx="-349.8" cy="917" rx="5.4" ry="5.4"/>
						<circle class="st1" cx="-761.9" cy="917" r="5.4"/>
						<circle class="st1" cx="-796.2" cy="917" r="5.4"/>
						<circle class="st1" cx="-727.5" cy="917" r="5.4"/>
						<circle class="st1" cx="-693.2" cy="917" r="5.4"/>
						<circle class="st1" cx="-658.9" cy="917" r="5.4"/>
						<circle class="st1" cx="-624.5" cy="917" r="5.4"/>
						<circle class="st1" cx="-590.2" cy="917" r="5.4"/>
						<circle class="st1" cx="-538.7" cy="934.8" r="5.4"/>
						<circle class="st1" cx="-504.3" cy="934.8" r="5.4"/>
						<circle class="st1" cx="-470" cy="934.8" r="5.4"/>
						<circle class="st1" cx="-435.7" cy="934.8" r="5.4"/>
						<circle class="st1" cx="-401.3" cy="934.8" r="5.4"/>
						<circle class="st1" cx="-367" cy="934.8" r="5.4"/>
						<circle class="st1" cx="-332.7" cy="934.8" r="5.4"/>
						<circle class="st1" cx="-744.7" cy="934.8" r="5.4"/>
						<circle class="st1" cx="-779" cy="934.8" r="5.4"/>
						<circle class="st1" cx="-813.4" cy="934.8" r="5.4"/>
						<ellipse class="st1" cx="-710.5" cy="934.8" rx="5.4" ry="5.4"/>
						<circle class="st1" cx="-676" cy="934.8" r="5.4"/>
						<circle class="st1" cx="-641.7" cy="934.8" r="5.4"/>
						<circle class="st1" cx="-607.3" cy="934.8" r="5.4"/>
						<circle class="st1" cx="-573" cy="934.8" r="5.4"/>
						<circle class="st1" cx="-555.8" cy="952.7" r="5.4"/>
						<circle class="st1" cx="-521.5" cy="952.7" r="5.4"/>
						<circle class="st1" cx="-487.2" cy="952.7" r="5.4"/>
						<circle class="st1" cx="-452.8" cy="952.7" r="5.4"/>
						<circle class="st1" cx="-418.5" cy="952.7" r="5.4"/>
						<circle class="st1" cx="-384.2" cy="952.7" r="5.4"/>
						
							<ellipse transform="matrix(0.9239 -0.3827 0.3827 0.9239 -391.2266 -61.3449)" class="st1" cx="-349.8" cy="952.7" rx="5.4" ry="5.4"/>
						<circle class="st1" cx="-727.5" cy="952.7" r="5.4"/>
						<circle class="st1" cx="-761.9" cy="952.7" r="5.4"/>
						<circle class="st1" cx="-796.2" cy="952.7" r="5.4"/>
						<ellipse class="st1" cx="-831" cy="952.5" rx="5.4" ry="5.4"/>
						<circle class="st1" cx="-693.2" cy="952.7" r="5.4"/>
						<circle class="st1" cx="-658.9" cy="952.7" r="5.4"/>
						<circle class="st1" cx="-624.5" cy="952.7" r="5.4"/>
						<circle class="st1" cx="-590.2" cy="952.7" r="5.4"/>
						<circle class="st1" cx="-23.7" cy="863.3" r="5.4"/>
						
							<ellipse transform="matrix(1 -2.487545e-03 2.487545e-03 1 -2.1475 2.928773e-02)" class="st1" cx="10.7" cy="863.3" rx="5.4" ry="5.4"/>
						<circle class="st1" cx="45" cy="863.3" r="5.4"/>
						<circle class="st1" cx="79.4" cy="863.3" r="5.4"/>
						<circle class="st1" cx="113.7" cy="863.3" r="5.4"/>
						<circle class="st1" cx="148" cy="863.3" r="5.4"/>
						
							<ellipse transform="matrix(0.3162 -0.9487 0.9487 0.3162 -694.2298 763.3556)" class="st1" cx="182.4" cy="863.3" rx="5.4" ry="5.4"/>
						<circle class="st1" cx="-264" cy="863.3" r="5.4"/>
						<circle class="st1" cx="-298.4" cy="863.3" r="5.4"/>
						<circle class="st1" cx="-229.7" cy="863.3" r="5.4"/>
						<circle class="st1" cx="-195.3" cy="863.3" r="5.4"/>
						<circle class="st1" cx="-161" cy="863.3" r="5.4"/>
						
							<ellipse transform="matrix(0.9993 -3.837661e-02 3.837661e-02 0.9993 -33.2239 -4.2264)" class="st1" cx="-126.7" cy="863.3" rx="5.4" ry="5.4"/>
						<circle class="st1" cx="-92.3" cy="863.3" r="5.4"/>
						<circle class="st1" cx="-58" cy="863.3" r="5.4"/>
						<circle class="st1" cx="-40.8" cy="881.2" r="5.4"/>
						
							<ellipse transform="matrix(1 -2.439008e-03 2.439008e-03 1 -2.1493 -1.323252e-02)" class="st1" cx="-6.5" cy="881.2" rx="5.4" ry="5.4"/>
						
							<ellipse transform="matrix(0.9999 -1.020251e-02 1.020251e-02 0.9999 -8.989 0.3295)" class="st1" cx="27.8" cy="881.2" rx="5.4" ry="5.4"/>
						
							<ellipse transform="matrix(1.850905e-02 -0.9998 0.9998 1.850905e-02 -820.0003 927.0792)" class="st1" cx="62.2" cy="881.2" rx="5.4" ry="5.4"/>
						<circle class="st1" cx="96.5" cy="881.2" r="5.4"/>
						
							<ellipse transform="matrix(3.327802e-02 -0.9994 0.9994 3.327802e-02 -754.168 982.7029)" class="st1" cx="130.9" cy="881.2" rx="5.4" ry="5.4"/>
						<circle class="st1" cx="165.2" cy="881.2" r="5.4"/>
						<circle class="st1" cx="-281.2" cy="881.2" r="5.4"/>
						<circle class="st1" cx="-315.5" cy="881.2" r="5.4"/>
						<circle class="st1" cx="-246.8" cy="881.2" r="5.4"/>
						<circle class="st1" cx="-212.5" cy="881.2" r="5.4"/>
						<circle class="st1" cx="-178.2" cy="881.2" r="5.4"/>
						<circle class="st1" cx="-143.8" cy="881.2" r="5.4"/>
						<circle class="st1" cx="-109.5" cy="881.2" r="5.4"/>
						<circle class="st1" cx="-75.2" cy="881.2" r="5.4"/>
						<circle class="st1" cx="-23.7" cy="899.1" r="5.4"/>
						
							<ellipse transform="matrix(1 -2.487545e-03 2.487545e-03 1 -2.2365 2.939849e-02)" class="st1" cx="10.7" cy="899.1" rx="5.4" ry="5.4"/>
						<circle class="st1" cx="45" cy="899.1" r="5.4"/>
						<circle class="st1" cx="79.4" cy="899.1" r="5.4"/>
						<circle class="st1" cx="113.7" cy="899.1" r="5.4"/>
						<circle class="st1" cx="148" cy="899.1" r="5.4"/>
						
							<ellipse transform="matrix(0.3162 -0.9487 0.9487 0.3162 -728.1921 787.8357)" class="st1" cx="182.4" cy="899.1" rx="5.4" ry="5.4"/>
						<circle class="st1" cx="-264" cy="899.1" r="5.4"/>
						<circle class="st1" cx="-298.4" cy="899.1" r="5.4"/>
						<circle class="st1" cx="-229.7" cy="899.1" r="5.4"/>
						<circle class="st1" cx="-195.3" cy="899.1" r="5.4"/>
						<circle class="st1" cx="-161" cy="899.1" r="5.4"/>
						
							<ellipse transform="matrix(0.9993 -3.837661e-02 3.837661e-02 0.9993 -34.5977 -4.2)" class="st1" cx="-126.7" cy="899.1" rx="5.4" ry="5.4"/>
						<circle class="st1" cx="-92.3" cy="899.1" r="5.4"/>
						<circle class="st1" cx="-58" cy="899.1" r="5.4"/>
						<circle class="st1" cx="-40.8" cy="917" r="5.4"/>
						
							<ellipse transform="matrix(1 -2.439008e-03 2.439008e-03 1 -2.2366 -1.312604e-02)" class="st1" cx="-6.5" cy="917" rx="5.4" ry="5.4"/>
						
							<ellipse transform="matrix(0.9999 -1.020251e-02 1.020251e-02 0.9999 -9.3543 0.3314)" class="st1" cx="27.8" cy="917" rx="5.4" ry="5.4"/>
						
							<ellipse transform="matrix(1.850905e-02 -0.9998 0.9998 1.850905e-02 -855.7942 962.2166)" class="st1" cx="62.2" cy="917" rx="5.4" ry="5.4"/>
						<circle class="st1" cx="96.5" cy="917" r="5.4"/>
						
							<ellipse transform="matrix(3.327802e-02 -0.9994 0.9994 3.327802e-02 -789.9482 1017.3115)" class="st1" cx="130.9" cy="917" rx="5.4" ry="5.4"/>
						<circle class="st1" cx="165.2" cy="917" r="5.4"/>
						<circle class="st1" cx="-281.2" cy="917" r="5.4"/>
						<circle class="st1" cx="-315.5" cy="917" r="5.4"/>
						<circle class="st1" cx="-246.8" cy="917" r="5.4"/>
						<circle class="st1" cx="-212.5" cy="917" r="5.4"/>
						<circle class="st1" cx="-178.2" cy="917" r="5.4"/>
						<circle class="st1" cx="-143.8" cy="917" r="5.4"/>
						<circle class="st1" cx="-109.5" cy="917" r="5.4"/>
						<circle class="st1" cx="-75.2" cy="917" r="5.4"/>
						<circle class="st1" cx="-23.7" cy="934.8" r="5.4"/>
						
							<ellipse transform="matrix(1 -2.487545e-03 2.487545e-03 1 -2.3253 2.950895e-02)" class="st1" cx="10.7" cy="934.8" rx="5.4" ry="5.4"/>
						<circle class="st1" cx="45" cy="934.8" r="5.4"/>
						<circle class="st1" cx="79.4" cy="934.8" r="5.4"/>
						<circle class="st1" cx="113.7" cy="934.8" r="5.4"/>
						<circle class="st1" cx="148" cy="934.8" r="5.4"/>
						
							<ellipse transform="matrix(0.3162 -0.9487 0.9487 0.3162 -762.0595 812.2476)" class="st1" cx="182.4" cy="934.8" rx="5.4" ry="5.4"/>
						<circle class="st1" cx="-264" cy="934.8" r="5.4"/>
						<circle class="st1" cx="-298.4" cy="934.8" r="5.4"/>
						<circle class="st1" cx="-229.7" cy="934.8" r="5.4"/>
						<circle class="st1" cx="-195.3" cy="934.8" r="5.4"/>
						<circle class="st1" cx="-161" cy="934.8" r="5.4"/>
						
							<ellipse transform="matrix(0.9993 -3.837661e-02 3.837661e-02 0.9993 -35.9678 -4.1737)" class="st1" cx="-126.7" cy="934.8" rx="5.4" ry="5.4"/>
						<circle class="st1" cx="-92.3" cy="934.8" r="5.4"/>
						<circle class="st1" cx="-58" cy="934.8" r="5.4"/>
						<circle class="st1" cx="-40.8" cy="952.7" r="5.4"/>
						
							<ellipse transform="matrix(1 -2.439008e-03 2.439008e-03 1 -2.3237 -1.301986e-02)" class="st1" cx="-6.5" cy="952.7" rx="5.4" ry="5.4"/>
						
							<ellipse transform="matrix(0.9999 -1.020251e-02 1.020251e-02 0.9999 -9.7185 0.3332)" class="st1" cx="27.8" cy="952.7" rx="5.4" ry="5.4"/>
						
							<ellipse transform="matrix(1.850905e-02 -0.9998 0.9998 1.850905e-02 -891.4881 997.2558)" class="st1" cx="62.2" cy="952.7" rx="5.4" ry="5.4"/>
						<circle class="st1" cx="96.5" cy="952.7" r="5.4"/>
						
							<ellipse transform="matrix(3.327802e-02 -0.9994 0.9994 3.327802e-02 -825.6284 1051.8235)" class="st1" cx="130.9" cy="952.7" rx="5.4" ry="5.4"/>
						<circle class="st1" cx="165.2" cy="952.7" r="5.4"/>
						<circle class="st1" cx="-281.2" cy="952.7" r="5.4"/>
						<circle class="st1" cx="-315.5" cy="952.7" r="5.4"/>
						<circle class="st1" cx="-246.8" cy="952.7" r="5.4"/>
						<circle class="st1" cx="-212.5" cy="952.7" r="5.4"/>
						<circle class="st1" cx="-178.2" cy="952.7" r="5.4"/>
						<circle class="st1" cx="-143.8" cy="952.7" r="5.4"/>
						<circle class="st1" cx="-109.5" cy="952.7" r="5.4"/>
						<circle class="st1" cx="-75.2" cy="952.7" r="5.4"/>
						<circle class="st1" cx="216.2" cy="863.3" r="5.4"/>
						<path class="st1" d="M250.6,857.8c3,0,5.5,2.4,5.5,5.4s-2.4,5.4-5.5,5.4s-5.4-2.4-5.4-5.4S247.5,857.8,250.6,857.8z"/>
						<circle class="st1" cx="284.9" cy="863.3" r="5.5"/>
						<circle class="st1" cx="319.2" cy="863.3" r="5.5"/>
						<circle class="st1" cx="353.6" cy="863.3" r="5.5"/>
						<circle class="st1" cx="387.9" cy="863.3" r="5.5"/>
						<circle class="st1" cx="422.2" cy="863.3" r="5.5"/>
						<circle class="st1" cx="439.4" cy="881.2" r="5.5"/>
						<circle class="st1" cx="199.1" cy="881.2" r="5.4"/>
						<circle class="st1" cx="233.4" cy="881.2" r="5.4"/>
						<circle class="st1" cx="267.7" cy="881.2" r="5.5"/>
						<circle class="st1" cx="302.1" cy="881.2" r="5.5"/>
						<circle class="st1" cx="336.4" cy="881.2" r="5.5"/>
						<circle class="st1" cx="370.7" cy="881.2" r="5.5"/>
						<circle class="st1" cx="405.1" cy="881.2" r="5.5"/>
						<circle class="st1" cx="456.6" cy="899.1" r="5.5"/>
						<circle class="st1" cx="216.2" cy="899.1" r="5.4"/>
						<path class="st1" d="M250.6,893.6c3,0,5.5,2.4,5.5,5.4s-2.4,5.4-5.5,5.4s-5.4-2.4-5.4-5.4S247.5,893.6,250.6,893.6z"/>
						<circle class="st1" cx="284.9" cy="899.1" r="5.5"/>
						<circle class="st1" cx="319.2" cy="899.1" r="5.5"/>
						<circle class="st1" cx="353.6" cy="899.1" r="5.5"/>
						<circle class="st1" cx="387.9" cy="899.1" r="5.5"/>
						<circle class="st1" cx="422.2" cy="899.1" r="5.5"/>
						<circle class="st1" cx="439.4" cy="917" r="5.5"/>
						<circle class="st1" cx="473.7" cy="917" r="5.5"/>
						<circle class="st1" cx="199.1" cy="917" r="5.4"/>
						<circle class="st1" cx="233.4" cy="917" r="5.4"/>
						<circle class="st1" cx="267.7" cy="917" r="5.5"/>
						<circle class="st1" cx="302.1" cy="917" r="5.5"/>
						<circle class="st1" cx="336.4" cy="917" r="5.5"/>
						<circle class="st1" cx="370.7" cy="917" r="5.5"/>
						<circle class="st1" cx="405.1" cy="917" r="5.5"/>
						<circle class="st1" cx="456.6" cy="934.8" r="5.5"/>
						<circle class="st1" cx="490.9" cy="934.8" r="5.5"/>
						<circle class="st1" cx="216.2" cy="934.8" r="5.4"/>
						<path class="st1" d="M250.6,929.4c3,0,5.5,2.4,5.5,5.4s-2.4,5.4-5.5,5.4s-5.4-2.4-5.4-5.4S247.5,929.4,250.6,929.4z"/>
						<circle class="st1" cx="284.9" cy="934.8" r="5.5"/>
						<circle class="st1" cx="319.2" cy="934.8" r="5.5"/>
						<circle class="st1" cx="353.6" cy="934.8" r="5.5"/>
						<circle class="st1" cx="387.9" cy="934.8" r="5.5"/>
						<circle class="st1" cx="422.2" cy="934.8" r="5.5"/>
						<circle class="st1" cx="439.4" cy="952.7" r="5.5"/>
						<circle class="st1" cx="473.7" cy="952.7" r="5.5"/>
						
							<ellipse transform="matrix(0.1602 -0.9871 0.9871 0.1602 -513.6869 1301.6333)" class="st1" cx="508.1" cy="952.7" rx="5.5" ry="5.5"/>
						<circle class="st1" cx="199.1" cy="952.7" r="5.4"/>
						<circle class="st1" cx="233.4" cy="952.7" r="5.4"/>
						<circle class="st1" cx="267.7" cy="952.7" r="5.5"/>
						<circle class="st1" cx="302.1" cy="952.7" r="5.5"/>
						<circle class="st1" cx="336.4" cy="952.7" r="5.5"/>
						<circle class="st1" cx="370.7" cy="952.7" r="5.5"/>
						<circle class="st1" cx="405.1" cy="952.7" r="5.5"/>
						<circle class="st1" cx="456.9" cy="863.3" r="5.5"/>
						<circle class="st1" cx="491.3" cy="863.3" r="5.5"/>
						
							<ellipse transform="matrix(0.1602 -0.9871 0.9871 0.1602 -442.8581 1241.8829)" class="st1" cx="508.4" cy="881.2" rx="5.5" ry="5.5"/>
						<circle class="st1" cx="474.1" cy="881.2" r="5.5"/>
						<circle class="st1" cx="525.6" cy="899.1" r="5.5"/>
						<circle class="st1" cx="491.3" cy="899.1" r="5.5"/>
						
							<ellipse transform="matrix(0.1602 -0.9871 0.9871 0.1602 -478.1958 1271.9484)" class="st1" cx="508.4" cy="917" rx="5.5" ry="5.5"/>
						<circle class="st1" cx="542.8" cy="917" r="5.5"/>
						<circle class="st1" cx="525.6" cy="934.8" r="5.5"/>
						<circle class="st1" cx="559.9" cy="934.8" r="5.5"/>
						<circle class="st1" cx="542.8" cy="952.7" r="5.5"/>
						<circle class="st1" cx="577.1" cy="952.7" r="5.5"/>
					</g>
					<polygon id="BACKGROUND-2" class="st1" points="-719,-190.5 -127.3,-499.2 465.2,-190.5 465.2,849.5 -719,849.5 					"/>
					<g id="LAMP">
						<polygon class="st2" points="99.3,-179.5 430,850.6 -514.6,850.6 -121.2,-179.5 						"/>
						<line class="st3" x1="-11.8" y1="-179.5" x2="-11.8" y2="850.6"/>
						<polygon class="st4" points="99.3,-179.5 -121.2,-179.5 -87.6,-280.8 65.6,-280.8 						"/>
						<line class="st5" x1="-84" y1="-293.1" x2="62.1" y2="-293.1"/>
						<line class="st3" x1="53.9" y1="-179.5" x2="53.9" y2="-54"/>
						<circle class="st6" cx="53.8" cy="-46.2" r="8.4"/>
					</g>
					<rect x="-2.9" y="-2.5" class="st7" width="133.4" height="133.4"/>
					<g id="CHARACTER-2">
						<g id="CHAIR">
							<path class="st8" d="M169.3,582.8c-9.4,17.5-27.7,28.3-47.5,28.3h-331v-42.3h59.6l83-188.8c8.9-20.2,28.9-33.3,51-33.3h210.8
								c41.1,0,68.1,43,50.2,80L169.3,582.8z"/>
							<line class="st9" x1="96.5" y1="611.1" x2="186.9" y2="848.6"/>
							<line class="st9" x1="-104.4" y1="611.1" x2="-194.8" y2="848.6"/>
						</g>
						<g id="SHIRT">
							<path class="st10" d="M-140,296.4V256c0-66.4,53.8-120.2,120.2-120.2h187.6c62.7,0,118.6,39.2,140.1,98.1l44.2,121.5
								c14.6,40.2,2.8,81.6-24.1,108.6c-25.6,25.7-63.7,34.3-98.3,23.4l-57.6-26.3l-20.2,29.7L-140,296.4z"/>
							<path class="st11" d="M238.9,153.9h-322c2.6-1.6,5.2-3.1,7.9-4.5H230c2.8,1.3,5.5,2.6,8.2,4.1
								C238.4,153.6,238.6,153.7,238.9,153.9z"/>
							<path class="st11" d="M271.1,177.4h-381.8c1.3-1.5,2.7-3,4.1-4.5h372.9C267.9,174.4,269.5,175.9,271.1,177.4z"/>
							<path class="st11" d="M291,201h-417.7l0.7-1.3c0.6-1.1,1.2-2.2,1.8-3.2h412c0.6,0.9,1.3,1.8,1.9,2.6
								C290.2,199.7,290.6,200.3,291,201z"/>
							<path class="st11" d="M304.1,224.5h-439.9c0.4-1.5,0.8-3,1.3-4.5H302C302.7,221.5,303.4,223,304.1,224.5z"/>
							<path class="st11" d="M313,248.1h-452.7c0.1-1.5,0.2-3,0.4-4.5h450.7L313,248.1z"/>
							<polygon class="st11" points="321.6,271.7 -140,271.7 -140,267.2 320,267.2 							"/>
							<polygon class="st11" points="330.2,295.2 -140,295.2 -140,290.7 328.5,290.7 							"/>
							<polygon class="st11" points="338.7,318.8 -106.4,318.8 -112,315.1 -113.1,314.3 337.1,314.3 							"/>
							<polygon class="st11" points="347.3,342.4 -71,342.4 -77.8,337.9 345.7,337.9 							"/>
							<path class="st11" d="M355.3,365.9H-35.6l-5.6-3.8l-1.1-0.7h396.4C354.5,362.9,354.9,364.4,355.3,365.9z"/>
							<path class="st11" d="M358.4,389.5H-0.2l-6.7-4.5h365.2C358.3,386.5,358.3,388,358.4,389.5z"/>
							<path class="st11" d="M356.8,408.6c-0.3,1.5-0.6,3-0.9,4.5H35.1l-5.7-3.8l-1-0.7H356.8z"/>
							<path class="st11" d="M349.7,432.1c-0.7,1.5-1.4,3-2.1,4.5h-277l-6.7-4.5H349.7z"/>
							<path class="st11" d="M335.4,455.7c-1,1.2-2,2.4-3,3.6l-0.8,0.9H105.9l-4.7-3.1l-2-1.4H335.4z"/>
							<polygon class="st11" points="54.1,135.8 54.1,425.7 49.6,422.7 49.6,135.8 							"/>
							<polygon class="st11" points="77.7,135.8 77.7,441.4 73.2,438.4 73.2,135.8 							"/>
							<polygon class="st11" points="101.2,135.8 101.2,457 99.2,455.7 96.7,454.1 96.7,135.8 							"/>
							<polygon class="st11" points="124.8,135.8 124.8,472.7 120.3,469.7 120.3,135.8 							"/>
							<polygon class="st11" points="148.3,135.8 148.3,488.4 143.9,485.4 143.9,135.8 							"/>
							<path class="st11" d="M171.9,135.9v325.4l-4.5,6.6v-332h0.4h2.2h1.7H171.9z"/>
							<path class="st11" d="M195.5,138.4v338L191,475V137.6C192.5,137.9,194,138.1,195.5,138.4z"/>
							<path class="st11" d="M219,144.9v339l-4.5-1.4V143.3C216.1,143.8,217.6,144.3,219,144.9z"/>
							<path class="st11" d="M242.6,155.9v334.5c-1.5-0.3-3-0.6-4.5-0.9V153.4c0.3,0.1,0.5,0.3,0.8,0.4
								C240.1,154.5,241.4,155.2,242.6,155.9z"/>
							<path class="st11" d="M266.2,172.9v318.9c-1.5,0.1-3,0.2-4.5,0.2V169.1C263.2,170.3,264.7,171.6,266.2,172.9z"/>
							<path class="st11" d="M289.7,199.1v288.1c-0.7,0.2-1.4,0.5-2.1,0.7l-1.7,0.5l-0.6,0.2V193.1c0.9,1.1,1.8,2.3,2.6,3.4
								C288.5,197.4,289.1,198.2,289.7,199.1z"/>
							<path class="st11" d="M313.3,248.8v227.1c-0.7,0.5-1.4,1-2.1,1.4s-1.4,0.8-2,1.2l-0.3,0.2V236.5l2.6,7.1l1.6,4.5L313.3,248.8
								z"/>
							<path class="st11" d="M336.9,313.6v140.2c-0.5,0.6-1,1.3-1.5,1.9c-1,1.2-2,2.4-3,3.6v-158L336.9,313.6z"/>
							<path class="st11" d="M-112,178.9v136.2l-1.2-0.8l-3.3-2.2V184.6C-115,182.7-113.5,180.8-112,178.9z"/>
							<path class="st11" d="M-88.4,157.3v173.4l-4.5-3V160.6C-91.4,159.5-89.9,158.4-88.4,157.3z"/>
							<path class="st11" d="M-64.8,144.6v201.9l-4.5-3v-197C-67.8,145.8-66.4,145.2-64.8,144.6z"/>
							<path class="st11" d="M-41.3,137.7v224.4l-1.1-0.7l-3.4-2.3V138.6C-44.3,138.3-42.8,138-41.3,137.7z"/>
							<path class="st11" d="M-17.7,135.8v242l-4.5-3v-239h2.4L-17.7,135.8L-17.7,135.8z"/>
							<polygon class="st11" points="5.9,135.8 5.9,393.5 1.4,390.6 1.4,135.8 							"/>
							<polygon class="st11" points="29.4,135.8 29.4,409.2 28.4,408.6 24.9,406.2 24.9,135.8 							"/>
							<line class="st12" x1="216.3" y1="343.6" x2="180.1" y2="269.4"/>
						</g>
						<g id="LAPTOP">
							<path class="st8" d="M-7.8,355h-213.7l-41.4-130.4c-2.2-6.9,1.6-14.3,8.6-16.6c1.3-0.4,2.6-0.6,4-0.6h179.8
								c9.5,0,17.8,6.1,20.7,15.1L-7.8,355z"/>
							<path class="st5" d="M-297.4,213.5c0-20.4,16.6-37,37-37l0,0"/>
							<path class="st5" d="M-322.5,213.5c0-34.3,27.8-62.1,62.2-62.1"/>
							<path class="st5" d="M-346.4,213.5c0-47.5,38.5-86,86-86l0,0"/>
						</g>
						<g id="HAND">
							<path class="st13" d="M325.6,470.2c-30.2,36.1-97.5,21.7-116.4,14c-52.8-21.5-121.6-79.9-136.7-89c-4.8-3.8-11.5-4-16.6-0.6
								L19.1,424c-9.5,6.7-19.1,7.1-27.9-0.6l-47.5-40.1l-10.1,5.3c-5.2,2.8-11.2,3.5-16.9,1.9c-4.8-1.6-7.5-6.8-5.9-11.7
								c0.7-2,2-3.8,3.9-4.9l77.4-48.8l0,0c20.1-13.1,43.6-20.2,67.6-20.2h5c13.5,0,27.1,1.3,40.3,3.9l158.9,37.8
								C314.6,355,377.2,408.6,325.6,470.2z"/>
							<line class="st12" x1="-55.6" y1="383.5" x2="-17.6" y2="360.4"/>
							<line class="st12" x1="-36.4" y1="398" x2="-0.4" y2="376.4"/>
							<line class="st12" x1="-18" y1="414.1" x2="18.1" y2="392.5"/>
						</g>
						<g id="LEGS">
							<g id="LEGS-2">
								<path id="LEFT" class="st14" d="M151.8,490.7l-18.9,21.6C79.7,572.8-9,587.2-78.5,546.4l-179.7-105.2
									c-6.8-4-15.4-2.5-20.5,3.4l-190.4,220.6l-60.7-48.1c-5.7-4.5-9.9-10.7-12.1-17.6l-6.9-21.8c-3.6-11.5-10.6-21.7-20-29.2
									L-587,534l232.7-252.6c41.7-45.7,110.5-54.1,161.9-19.8L151.8,490.7z"/>
								<path id="RIGHT" class="st14" d="M-32.4,569.3l-159.3-0.4c-9.7,0-17.6,7.8-17.6,17.5c0,0,0,0,0,0.1v219.4h-77.2
									c-7.3,0-14.4-2.2-20.4-6.2l-19-12.7c-10-6.7-21.8-10.3-33.9-10.3h-23.3c0.2-2.5,0.4-5,0.4-7.6V513.2
									c0-64.2,69.6-104.1,125-71.7L-32.4,569.3z"/>
							</g>
							<g id="SHOES">
								<g id="RIGHT-2">
									<path class="st15" d="M-209.2,805.8v13.4c0,16.8-13.6,30.4-30.4,30.4h-193l21.7-18.9c15.9-13.8,25.9-33.3,27.8-54.2h23.3
										c12.1,0,23.9,3.6,33.9,10.3l19,12.7c6,4.1,13.2,6.2,20.4,6.2L-209.2,805.8z"/>
									<path class="st9" d="M-209.2,805.8v13.4c0,16.8-13.6,30.4-30.4,30.4h-193l21.7-18.9c15.9-13.8,25.9-33.3,27.8-54.2h23.3
										c12.1,0,23.9,3.6,33.9,10.3l19,12.7c6,4.1,13.2,6.2,20.4,6.2L-209.2,805.8z"/>
									<path class="st9" d="M-209.2,805.8v7.3c0,0-10.6,23.7-23.7,23.7h-184.9l6.9-6c15.9-13.8,25.9-33.3,27.8-54.2h23.3
										c12.1,0,23.9,3.6,33.9,10.3l19,12.7c6,4.1,13.2,6.2,20.4,6.2H-209.2z"/>
									<path class="st14" d="M-209.2,813.1v6.2c0,16.8-13.6,30.4-30.4,30.4h-193l14.8-12.8h184.9
										C-219.8,836.8-209.2,813.1-209.2,813.1z"/>
								</g>
								<g id="LEFT-2">
									<path class="st15" d="M-469.6,665.3l-8.4,10.5c-10.5,13.1-29.6,15.2-42.7,4.8l-150.8-120.5l28.7-1.2
										c21.1-0.9,41-9.8,55.6-25l18.2,14.5c9.4,7.6,16.4,17.7,20,29.2l6.9,21.8c2.2,6.9,6.4,13.1,12.1,17.6L-469.6,665.3z"/>
									<path class="st9" d="M-469.6,665.3l-8.4,10.5c-10.5,13.1-29.6,15.2-42.7,4.8l-150.8-120.5l28.7-1.2
										c21.1-0.9,41-9.8,55.6-25l18.2,14.5c9.4,7.6,16.4,17.7,20,29.2l6.9,21.8c2.2,6.9,6.4,13.1,12.1,17.6L-469.6,665.3z"/>
									<path class="st9" d="M-469.6,665.3l-4.5,5.7c0,0-23.1,11.9-33.3,3.7l-144.4-115.4l9.1-0.4c21.1-0.9,41-9.8,55.6-25
										l18.2,14.5c9.4,7.6,16.4,17.7,20,29.2l6.9,21.8c2.2,6.9,6.4,13.1,12.1,17.6L-469.6,665.3z"/>
									<path class="st14" d="M-474.1,671l-3.9,4.8c-10.5,13.1-29.6,15.2-42.7,4.8l-150.8-120.5l19.6-0.8l144.5,115.4
										C-497.2,682.8-474.1,671-474.1,671z"/>
								</g>
							</g>
						</g>
						<g id="HEAD">
							<g id="NECK">
								<polygon class="st13" points="50.6,182.8 131.2,135.8 103.8,82.7 50.6,99.3 								"/>
								<polyline class="st12" points="50.6,99.8 50.6,182.8 131.2,135.8 								"/>
								<path class="st8" d="M50.6,136.5l38.1-23.6c9.3-5.8,15-15.9,15-26.9v-3.3L50.6,99.3V136.5z"/>
							</g>
							<g id="HEAD-2">
								<path id="HEAD-3" class="st13" d="M119.6,69.6v3.2c0,7.3-5.9,13.3-13.3,13.3h-9.1l-1.8,3.5c-4.7,9.2-13.8,15.2-24.1,15.8
									l-17.6,1c-7.1,0.4-13.1-4.9-13.6-12c0-0.3,0-0.5,0-0.8V54.3c0-12.1,9.8-21.9,21.9-21.9l0,0h6.7c10.2,0,19,7,21.3,16.9
									l2.7,11.8c2-3,5.4-4.9,9-4.9h4.6C113.7,56.3,119.6,62.2,119.6,69.6C119.6,69.5,119.6,69.6,119.6,69.6z"/>
								<g id="FACE">
									<polyline class="st12" points="41.2,55.2 52.8,55.2 50.4,79 57.7,79 									"/>
									<line class="st12" x1="66.2" y1="55.2" x2="80.6" y2="56.3"/>
									<path class="st12" d="M106.9,65.1c-4.6,0-8.3,3.7-8.3,8.3l0,0"/>
									<ellipse class="st8" cx="71.3" cy="67" rx="2.3" ry="4.1"/>
									<ellipse class="st8" cx="43.2" cy="67" rx="2.3" ry="4.1"/>
									<path class="st12" d="M52.9,89.6h5.5c2.5,0,4.9-0.9,6.7-2.5"/>
								</g>
							</g>
							<path id="HAIR" class="st4" d="M113.9,45.4c0,4.1-1.4,8.1-4.1,11.3c-1.1-0.3-2.3-0.5-3.4-0.5h-4.6c-3.6,0-7,1.8-9,4.9
								l-2.7-11.8c-0.7-3.1-2.1-6-4.1-8.6c-1.9,2.3-4.4,4-7.3,5c-1.8,0.6-3.7,0.9-5.6,0.9c-3.6,0-7.1-1.1-10-3.2
								c-3.5-2.4-5.7-6.3-6.2-10.5c-8.3,2-14.7,8.7-16.3,17.2C31.8,46,28,35.5,32.1,26.6c4.1-8.8,14.6-12.6,23.5-8.5
								c1.9,0.9,3.7,2.1,5.2,3.7c3.2-3.4,7.7-5.4,12.4-5.3c8.1,0,14.9,5.5,16.1,12.8c2.3-1,4.7-1.6,7.2-1.6
								C106,27.8,113.9,35.7,113.9,45.4z"/>
						</g>
					</g>
					<g id="PLANT">
						<path class="st10" d="M222.9,791.1h76.3c7.9,0,14.4,6.4,14.4,14.4v46.3l0,0h-105l0,0v-46.3
							C208.5,797.5,214.9,791.1,222.9,791.1L222.9,791.1z"/>
						<path class="st4" d="M409.9,186.1V274c0,17-7.5,33.1-20.4,44.1l0,0c-14.9,12.6-23.5,31.2-23.5,50.7V410
							c0,20.5-10.8,39.4-28.5,49.8l0,0c-15.5,9.2-25.1,25.9-25.1,43.9v33.6c0,20.6-11.3,39.6-29.4,49.4l-13.8,7.5V478.7
							c0-64.8,20.6-127.8,58.7-180.2L409.9,186.1z"/>
						<path class="st13" d="M409.9,186.1V274c0,17-7.5,33.1-20.4,44.1c-14.9,12.6-23.5,31.2-23.5,50.7V410
							c0,20.5-10.8,39.4-28.5,49.8c-7.6,4.5-14,10.9-18.4,18.6c-2.1,3.7-3.7,7.6-4.8,11.6l-32-99.8c9.9-32.9,25.4-64,45.7-91.8
							L409.9,186.1z"/>
						<path class="st4" d="M251.6,703.6v-44.2c0-76.1-33.4-148.4-91.4-197.7l-57.4-49v58.7c0,19.5,10.8,37.5,28,46.7l0,0
							c13.2,7,21.4,20.8,21.4,35.7v11.8c0,20.6,11.4,39.6,29.6,49.3l0,0c8.3,4.4,13.5,13.1,13.5,22.5l0,0c0,26.5,16.2,50.3,40.8,60
							L251.6,703.6z"/>
						<path class="st4" d="M269.1,791.1V583c-0.1-1.5,1.1-2.8,2.6-2.9s2.8,1.1,2.9,2.6c0,0.1,0,0.2,0,0.3v208.1H269.1z"/>
						<path class="st4" d="M246.1,791.1V681.2c-0.1-1.5,1.1-2.8,2.6-2.9s2.8,1.1,2.9,2.6c0,0.1,0,0.2,0,0.3v109.9H246.1z"/>
						<path class="st4" d="M286,791.1V684.7c0-1.5,1.2-2.8,2.8-2.8s2.8,1.2,2.8,2.8v106.4L286,791.1L286,791.1z"/>
						<circle class="st13" cx="292" cy="675.8" r="11.2"/>
						<circle class="st13" cx="229.6" cy="495.2" r="11.2"/>
					</g>
					<g id="CLOCK">
						<circle class="st2" cx="-447.1" cy="-119.6" r="86.6"/>
						<circle class="st12" cx="-456.1" cy="-126.4" r="86.6"/>
						<circle class="st4" cx="-456.1" cy="-195" r="5.2"/>
						<circle class="st4" cx="-456.1" cy="-57.8" r="5.2"/>
						<circle class="st4" cx="-524.7" cy="-126.4" r="5.2"/>
						<circle class="st4" cx="-387.5" cy="-126.4" r="5.2"/>
						<polyline class="st12" points="-482.7,-149 -456.3,-124 -426.3,-173.5 						"/>
					</g>
				</g>
			</g>
		</g>
	</g>
</g>
</svg>
