<?xml version="1.0" encoding="utf-8"?>
<!-- Generator: Adobe Illustrator 25.0.1, SVG Export Plug-In . SVG Version: 6.00 Build 0)  -->
<svg version="1.1" id="Capa_1" xmlns="http://www.w3.org/2000/svg" xmlns:xlink="http://www.w3.org/1999/xlink" x="0px" y="0px"
	 viewBox="0 0 1642.1 1528.5" style="enable-background:new 0 0 1642.1 1528.5;" xml:space="preserve">
<style type="text/css">
	.st0{fill:#CEE4ED;}
	.st1{fill:#98C8DB;}
	.st2{fill:#FFFFFF;}
	.st3{fill:none;stroke:#A74602;stroke-width:5;stroke-miterlimit:10;}
	.st4{fill:#FFC200;}
	.st5{fill:none;stroke:#FFFFFF;stroke-width:5;stroke-linecap:round;stroke-miterlimit:10;}
	.st6{fill:none;stroke:#F3B304;stroke-width:5;stroke-linecap:round;stroke-miterlimit:10;}
	.st7{fill:#59221D;}
	.st8{fill:none;stroke:#59221D;stroke-width:5;stroke-linecap:round;stroke-linejoin:round;}
	.st9{fill:#F5BBBB;}
	.st10{fill:#FED4C7;}
	.st11{fill:none;stroke:#59221D;stroke-width:4;stroke-linecap:round;stroke-linejoin:round;}
	.st12{fill:#A74602;}
	.st13{fill:#FFFFFF;stroke:#59221D;stroke-width:5;stroke-linejoin:round;}
</style>
<g id="Layer_2">
	<g id="Слой_1">
		<g id="CHARACTER">
			<g id="PATTERN-2">
				<circle class="st0" cx="520.9" cy="1433.6" r="5.4"/>
				<circle class="st0" cx="555.2" cy="1433.6" r="5.4"/>
				<circle class="st0" cx="589.5" cy="1433.6" r="5.4"/>
				<circle class="st0" cx="623.9" cy="1433.6" r="5.4"/>
				<circle class="st0" cx="658.2" cy="1433.6" r="5.4"/>
				<circle class="st0" cx="692.6" cy="1433.6" r="5.4"/>
				<circle class="st0" cx="726.9" cy="1433.6" r="5.4"/>
				<circle class="st0" cx="314.9" cy="1433.6" r="5.4"/>
				<circle class="st0" cx="349.2" cy="1433.6" r="5.4"/>
				<circle class="st0" cx="383.5" cy="1433.6" r="5.4"/>
				<circle class="st0" cx="417.9" cy="1433.6" r="5.4"/>
				<circle class="st0" cx="452.2" cy="1433.6" r="5.4"/>
				<circle class="st0" cx="486.5" cy="1433.6" r="5.4"/>
				<circle class="st0" cx="503.7" cy="1451.5" r="5.4"/>
				<circle class="st0" cx="538" cy="1451.5" r="5.4"/>
				<circle class="st0" cx="572.4" cy="1451.5" r="5.4"/>
				<circle class="st0" cx="606.7" cy="1451.5" r="5.4"/>
				<circle class="st0" cx="641.1" cy="1451.5" r="5.4"/>
				<circle class="st0" cx="675.4" cy="1451.5" r="5.4"/>
				<circle class="st0" cx="709.7" cy="1451.5" r="5.4"/>
				<circle class="st0" cx="297.7" cy="1451.5" r="5.4"/>
				<circle class="st0" cx="332" cy="1451.5" r="5.4"/>
				<circle class="st0" cx="366.4" cy="1451.5" r="5.4"/>
				<circle class="st0" cx="400.7" cy="1451.5" r="5.4"/>
				<circle class="st0" cx="435" cy="1451.5" r="5.4"/>
				<circle class="st0" cx="469.4" cy="1451.5" r="5.4"/>
				<circle class="st0" cx="520.9" cy="1469.4" r="5.4"/>
				<circle class="st0" cx="555.2" cy="1469.4" r="5.4"/>
				<circle class="st0" cx="589.5" cy="1469.4" r="5.4"/>
				<circle class="st0" cx="623.9" cy="1469.4" r="5.4"/>
				<circle class="st0" cx="658.2" cy="1469.4" r="5.4"/>
				<circle class="st0" cx="692.6" cy="1469.4" r="5.4"/>
				<circle class="st0" cx="726.9" cy="1469.4" r="5.4"/>
				<circle class="st0" cx="280.5" cy="1469.4" r="5.4"/>
				<circle class="st0" cx="314.9" cy="1469.4" r="5.4"/>
				<circle class="st0" cx="349.2" cy="1469.4" r="5.4"/>
				<circle class="st0" cx="383.5" cy="1469.4" r="5.4"/>
				<circle class="st0" cx="417.9" cy="1469.4" r="5.4"/>
				<circle class="st0" cx="452.2" cy="1469.4" r="5.4"/>
				<circle class="st0" cx="486.5" cy="1469.4" r="5.4"/>
				<circle class="st0" cx="503.7" cy="1487.3" r="5.4"/>
				<circle class="st0" cx="538" cy="1487.3" r="5.4"/>
				<circle class="st0" cx="572.4" cy="1487.3" r="5.4"/>
				<circle class="st0" cx="606.7" cy="1487.3" r="5.4"/>
				<circle class="st0" cx="641.1" cy="1487.3" r="5.4"/>
				<circle class="st0" cx="675.4" cy="1487.3" r="5.4"/>
				<circle class="st0" cx="709.7" cy="1487.3" r="5.4"/>
				<circle class="st0" cx="297.7" cy="1487.3" r="5.4"/>
				<circle class="st0" cx="263.3" cy="1487.3" r="5.4"/>
				<circle class="st0" cx="332" cy="1487.3" r="5.4"/>
				<circle class="st0" cx="366.4" cy="1487.3" r="5.4"/>
				<circle class="st0" cx="400.7" cy="1487.3" r="5.4"/>
				<circle class="st0" cx="435" cy="1487.3" r="5.4"/>
				<circle class="st0" cx="469.4" cy="1487.3" r="5.4"/>
				<circle class="st0" cx="520.9" cy="1505.1" r="5.4"/>
				<circle class="st0" cx="555.2" cy="1505.1" r="5.4"/>
				<circle class="st0" cx="589.5" cy="1505.1" r="5.4"/>
				<circle class="st0" cx="623.9" cy="1505.1" r="5.4"/>
				<circle class="st0" cx="658.2" cy="1505.1" r="5.4"/>
				<circle class="st0" cx="692.6" cy="1505.1" r="5.4"/>
				<circle class="st0" cx="726.9" cy="1505.1" r="5.4"/>
				<circle class="st0" cx="314.9" cy="1505.1" r="5.4"/>
				<circle class="st0" cx="280.5" cy="1505.1" r="5.4"/>
				<circle class="st0" cx="246.2" cy="1505.1" r="5.4"/>
				<circle class="st0" cx="349.2" cy="1505.1" r="5.4"/>
				<circle class="st0" cx="383.5" cy="1505.1" r="5.4"/>
				<circle class="st0" cx="417.9" cy="1505.1" r="5.4"/>
				<circle class="st0" cx="452.2" cy="1505.1" r="5.4"/>
				<circle class="st0" cx="486.5" cy="1505.1" r="5.4"/>
				<circle class="st0" cx="503.7" cy="1523" r="5.4"/>
				<circle class="st0" cx="538" cy="1523" r="5.4"/>
				<circle class="st0" cx="572.4" cy="1523" r="5.4"/>
				<circle class="st0" cx="606.7" cy="1523" r="5.4"/>
				<circle class="st0" cx="641.1" cy="1523" r="5.4"/>
				<circle class="st0" cx="675.4" cy="1523" r="5.4"/>
				<circle class="st0" cx="709.7" cy="1523" r="5.4"/>
				<circle class="st0" cx="332" cy="1523" r="5.4"/>
				<circle class="st0" cx="297.7" cy="1523" r="5.4"/>
				<circle class="st0" cx="263.3" cy="1523" r="5.4"/>
				<circle class="st0" cx="228.6" cy="1523" r="5.4"/>
				<circle class="st0" cx="366.4" cy="1523" r="5.4"/>
				<circle class="st0" cx="400.7" cy="1523" r="5.4"/>
				<circle class="st0" cx="435" cy="1523" r="5.4"/>
				<circle class="st0" cx="469.4" cy="1523" r="5.4"/>
				<circle class="st0" cx="1035.9" cy="1433.6" r="5.4"/>
				<circle class="st0" cx="1070.2" cy="1433.6" r="5.4"/>
				<circle class="st0" cx="1104.6" cy="1433.6" r="5.4"/>
				<circle class="st0" cx="1138.9" cy="1433.6" r="5.4"/>
				<circle class="st0" cx="1173.2" cy="1433.6" r="5.4"/>
				<circle class="st0" cx="1207.6" cy="1433.6" r="5.4"/>
				<circle class="st0" cx="1241.9" cy="1433.6" r="5.4"/>
				<circle class="st0" cx="795.5" cy="1433.6" r="5.4"/>
				<circle class="st0" cx="761.2" cy="1433.6" r="5.4"/>
				<circle class="st0" cx="829.9" cy="1433.6" r="5.4"/>
				<circle class="st0" cx="864.2" cy="1433.6" r="5.4"/>
				<circle class="st0" cx="898.5" cy="1433.6" r="5.4"/>
				<circle class="st0" cx="932.9" cy="1433.6" r="5.4"/>
				<circle class="st0" cx="967.2" cy="1433.6" r="5.4"/>
				<circle class="st0" cx="1001.6" cy="1433.6" r="5.4"/>
				<circle class="st0" cx="1018.7" cy="1451.5" r="5.4"/>
				<circle class="st0" cx="1053.1" cy="1451.5" r="5.4"/>
				<circle class="st0" cx="1087.4" cy="1451.5" r="5.4"/>
				<circle class="st0" cx="1121.7" cy="1451.5" r="5.4"/>
				<circle class="st0" cx="1156.1" cy="1451.5" r="5.4"/>
				<circle class="st0" cx="1190.4" cy="1451.5" r="5.4"/>
				<circle class="st0" cx="1224.7" cy="1451.5" r="5.4"/>
				<circle class="st0" cx="778.4" cy="1451.5" r="5.4"/>
				<circle class="st0" cx="744" cy="1451.5" r="5.4"/>
				<circle class="st0" cx="812.7" cy="1451.5" r="5.4"/>
				<circle class="st0" cx="847" cy="1451.5" r="5.4"/>
				<circle class="st0" cx="881.4" cy="1451.5" r="5.4"/>
				<circle class="st0" cx="915.7" cy="1451.5" r="5.4"/>
				<circle class="st0" cx="950.1" cy="1451.5" r="5.4"/>
				<circle class="st0" cx="984.4" cy="1451.5" r="5.4"/>
				<circle class="st0" cx="1035.9" cy="1469.4" r="5.4"/>
				<circle class="st0" cx="1070.2" cy="1469.4" r="5.4"/>
				<circle class="st0" cx="1104.6" cy="1469.4" r="5.4"/>
				<circle class="st0" cx="1138.9" cy="1469.4" r="5.4"/>
				<circle class="st0" cx="1173.2" cy="1469.4" r="5.4"/>
				<circle class="st0" cx="1207.6" cy="1469.4" r="5.4"/>
				<circle class="st0" cx="1241.9" cy="1469.4" r="5.4"/>
				<circle class="st0" cx="795.5" cy="1469.4" r="5.4"/>
				<circle class="st0" cx="761.2" cy="1469.4" r="5.4"/>
				<circle class="st0" cx="829.9" cy="1469.4" r="5.4"/>
				<circle class="st0" cx="864.2" cy="1469.4" r="5.4"/>
				<circle class="st0" cx="898.5" cy="1469.4" r="5.4"/>
				<circle class="st0" cx="932.9" cy="1469.4" r="5.4"/>
				<circle class="st0" cx="967.2" cy="1469.4" r="5.4"/>
				<circle class="st0" cx="1001.6" cy="1469.4" r="5.4"/>
				<circle class="st0" cx="1018.7" cy="1487.3" r="5.4"/>
				<circle class="st0" cx="1053.1" cy="1487.3" r="5.4"/>
				<circle class="st0" cx="1087.4" cy="1487.3" r="5.4"/>
				<circle class="st0" cx="1121.7" cy="1487.3" r="5.4"/>
				<circle class="st0" cx="1156.1" cy="1487.3" r="5.4"/>
				<circle class="st0" cx="1190.4" cy="1487.3" r="5.4"/>
				<circle class="st0" cx="1224.7" cy="1487.3" r="5.4"/>
				<circle class="st0" cx="778.4" cy="1487.3" r="5.4"/>
				<circle class="st0" cx="744" cy="1487.3" r="5.4"/>
				<circle class="st0" cx="812.7" cy="1487.3" r="5.4"/>
				<circle class="st0" cx="847" cy="1487.3" r="5.4"/>
				<circle class="st0" cx="881.4" cy="1487.3" r="5.4"/>
				<circle class="st0" cx="915.7" cy="1487.3" r="5.4"/>
				<circle class="st0" cx="950.1" cy="1487.3" r="5.4"/>
				<circle class="st0" cx="984.4" cy="1487.3" r="5.4"/>
				<circle class="st0" cx="1035.9" cy="1505.1" r="5.4"/>
				<circle class="st0" cx="1070.2" cy="1505.1" r="5.4"/>
				<circle class="st0" cx="1104.6" cy="1505.1" r="5.4"/>
				<circle class="st0" cx="1138.9" cy="1505.1" r="5.4"/>
				<circle class="st0" cx="1173.2" cy="1505.1" r="5.4"/>
				<circle class="st0" cx="1207.6" cy="1505.1" r="5.4"/>
				<circle class="st0" cx="1241.9" cy="1505.1" r="5.4"/>
				<circle class="st0" cx="795.5" cy="1505.1" r="5.4"/>
				<circle class="st0" cx="761.2" cy="1505.1" r="5.4"/>
				<circle class="st0" cx="829.9" cy="1505.1" r="5.4"/>
				<circle class="st0" cx="864.2" cy="1505.1" r="5.4"/>
				<circle class="st0" cx="898.5" cy="1505.1" r="5.4"/>
				<circle class="st0" cx="932.9" cy="1505.1" r="5.4"/>
				<circle class="st0" cx="967.2" cy="1505.1" r="5.4"/>
				<circle class="st0" cx="1001.6" cy="1505.1" r="5.4"/>
				<circle class="st0" cx="1018.7" cy="1523" r="5.4"/>
				<circle class="st0" cx="1053.1" cy="1523" r="5.4"/>
				<circle class="st0" cx="1087.4" cy="1523" r="5.4"/>
				<circle class="st0" cx="1121.7" cy="1523" r="5.4"/>
				<circle class="st0" cx="1156.1" cy="1523" r="5.4"/>
				<circle class="st0" cx="1190.4" cy="1523" r="5.4"/>
				<circle class="st0" cx="1224.7" cy="1523" r="5.4"/>
				<circle class="st0" cx="778.4" cy="1523" r="5.4"/>
				<circle class="st0" cx="744" cy="1523" r="5.4"/>
				<circle class="st0" cx="812.7" cy="1523" r="5.4"/>
				<circle class="st0" cx="847" cy="1523" r="5.4"/>
				<circle class="st0" cx="881.4" cy="1523" r="5.4"/>
				<circle class="st0" cx="915.7" cy="1523" r="5.4"/>
				<circle class="st0" cx="950.1" cy="1523" r="5.4"/>
				<circle class="st0" cx="984.4" cy="1523" r="5.4"/>
				<circle class="st0" cx="1275.8" cy="1433.6" r="5.4"/>
				<path class="st0" d="M1310.1,1428.1c3,0,5.5,2.4,5.5,5.4s-2.4,5.4-5.5,5.4s-5.4-2.4-5.4-5.4S1307.1,1428.1,1310.1,1428.1z"/>
				<circle class="st0" cx="1344.4" cy="1433.6" r="5.5"/>
				<circle class="st0" cx="1378.8" cy="1433.6" r="5.5"/>
				<circle class="st0" cx="1413.1" cy="1433.6" r="5.5"/>
				<circle class="st0" cx="1447.5" cy="1433.6" r="5.5"/>
				<circle class="st0" cx="1481.8" cy="1433.6" r="5.5"/>
				<circle class="st0" cx="1499" cy="1451.5" r="5.5"/>
				<circle class="st0" cx="1258.6" cy="1451.5" r="5.4"/>
				<circle class="st0" cx="1292.9" cy="1451.5" r="5.4"/>
				<circle class="st0" cx="1327.3" cy="1451.5" r="5.5"/>
				<circle class="st0" cx="1361.6" cy="1451.5" r="5.5"/>
				<circle class="st0" cx="1396" cy="1451.5" r="5.5"/>
				<circle class="st0" cx="1430.3" cy="1451.5" r="5.5"/>
				<circle class="st0" cx="1464.6" cy="1451.5" r="5.5"/>
				<circle class="st0" cx="1516.1" cy="1469.4" r="5.5"/>
				<circle class="st0" cx="1275.8" cy="1469.4" r="5.4"/>
				<path class="st0" d="M1310.1,1463.9c3,0,5.5,2.4,5.5,5.4s-2.4,5.4-5.5,5.4s-5.4-2.4-5.4-5.4S1307.1,1463.9,1310.1,1463.9z"/>
				<circle class="st0" cx="1344.4" cy="1469.4" r="5.5"/>
				<circle class="st0" cx="1378.8" cy="1469.4" r="5.5"/>
				<circle class="st0" cx="1413.1" cy="1469.4" r="5.5"/>
				<circle class="st0" cx="1447.5" cy="1469.4" r="5.5"/>
				<circle class="st0" cx="1481.8" cy="1469.4" r="5.5"/>
				<circle class="st0" cx="1499" cy="1487.3" r="5.5"/>
				<circle class="st0" cx="1533.3" cy="1487.3" r="5.5"/>
				<circle class="st0" cx="1258.6" cy="1487.3" r="5.4"/>
				<circle class="st0" cx="1292.9" cy="1487.3" r="5.4"/>
				<circle class="st0" cx="1327.3" cy="1487.3" r="5.5"/>
				<circle class="st0" cx="1361.6" cy="1487.3" r="5.5"/>
				<circle class="st0" cx="1396" cy="1487.3" r="5.5"/>
				<circle class="st0" cx="1430.3" cy="1487.3" r="5.5"/>
				<circle class="st0" cx="1464.6" cy="1487.3" r="5.5"/>
				<circle class="st0" cx="1516.1" cy="1505.1" r="5.5"/>
				<circle class="st0" cx="1550.5" cy="1505.1" r="5.5"/>
				<circle class="st0" cx="1275.8" cy="1505.1" r="5.4"/>
				<path class="st0" d="M1310.1,1499.7c3,0,5.5,2.4,5.5,5.4s-2.4,5.4-5.5,5.4s-5.4-2.4-5.4-5.4S1307.1,1499.7,1310.1,1499.7z"/>
				<circle class="st0" cx="1344.4" cy="1505.1" r="5.5"/>
				<circle class="st0" cx="1378.8" cy="1505.1" r="5.5"/>
				<circle class="st0" cx="1413.1" cy="1505.1" r="5.5"/>
				<circle class="st0" cx="1447.5" cy="1505.1" r="5.5"/>
				<circle class="st0" cx="1481.8" cy="1505.1" r="5.5"/>
				<circle class="st0" cx="1499" cy="1523" r="5.5"/>
				<circle class="st0" cx="1533.3" cy="1523" r="5.5"/>
				<circle class="st0" cx="1567.6" cy="1523" r="5.5"/>
				<circle class="st0" cx="1258.6" cy="1523" r="5.4"/>
				<circle class="st0" cx="1292.9" cy="1523" r="5.4"/>
				<circle class="st0" cx="1327.3" cy="1523" r="5.5"/>
				<circle class="st0" cx="1361.6" cy="1523" r="5.5"/>
				<circle class="st0" cx="1396" cy="1523" r="5.5"/>
				<circle class="st0" cx="1430.3" cy="1523" r="5.5"/>
				<circle class="st0" cx="1464.6" cy="1523" r="5.5"/>
				<circle class="st0" cx="1516.5" cy="1433.6" r="5.5"/>
				<circle class="st0" cx="1550.8" cy="1433.6" r="5.5"/>
				<circle class="st0" cx="1568" cy="1451.5" r="5.5"/>
				<circle class="st0" cx="1533.6" cy="1451.5" r="5.5"/>
				<circle class="st0" cx="1585.2" cy="1469.4" r="5.5"/>
				<circle class="st0" cx="1550.8" cy="1469.4" r="5.5"/>
				<circle class="st0" cx="1568" cy="1487.3" r="5.5"/>
				<circle class="st0" cx="1602.3" cy="1487.3" r="5.5"/>
				<circle class="st0" cx="1585.2" cy="1505.1" r="5.5"/>
				<circle class="st0" cx="1619.5" cy="1505.1" r="5.5"/>
				<circle class="st0" cx="1602.3" cy="1523" r="5.5"/>
				<circle class="st0" cx="1636.7" cy="1523" r="5.5"/>
			</g>
			<polygon id="BACKGROUND-2" class="st1" points="355.9,379.8 947.6,71.1 1540,379.8 1540,1419.8 355.9,1419.8 			"/>
			<g id="LAMP">
				<polygon class="st2" points="1158.8,390.8 1489.5,1420.9 545,1420.9 938.3,390.8 				"/>
				<line class="st3" x1="1047.8" y1="390.8" x2="1047.8" y2="1420.9"/>
				<polygon class="st4" points="1158.8,390.8 938.3,390.8 972,289.5 1125.2,289.5 				"/>
				<line class="st5" x1="975.5" y1="277.2" x2="1121.7" y2="277.2"/>
				<line class="st3" x1="1113.5" y1="390.8" x2="1113.5" y2="516.3"/>
				<circle class="st6" cx="1113.3" cy="524.1" r="8.4"/>
			</g>
			<g id="CHARACTER-2">
				<g id="CHAIR">
					<path class="st7" d="M910.6,1154c-9.4,17.5-27.7,28.3-47.5,28.3h-331v-42.3h59.6l83-188.8c8.9-20.2,28.9-33.3,51-33.3h210.8
						c41.1,0,68.1,43,50.2,80L910.6,1154z"/>
					<line class="st8" x1="837.8" y1="1182.4" x2="928.1" y2="1419.8"/>
					<line class="st8" x1="636.9" y1="1182.4" x2="546.5" y2="1419.8"/>
				</g>
				<g id="SHIRT">
					<path class="st9" d="M601.3,867.7v-40.4c0-66.4,53.8-120.2,120.2-120.2h187.6c62.7,0,118.6,39.2,140.1,98.1l44.2,121.5
						c14.6,40.2,2.8,81.6-24.1,108.6c-25.6,25.7-63.7,34.3-98.3,23.4l-57.6-26.3l-20.2,29.7L601.3,867.7z"/>
					<path class="st10" d="M980.2,725.1h-322c2.6-1.6,5.2-3.1,7.9-4.5h305.2c2.8,1.3,5.5,2.6,8.2,4.1
						C979.6,724.9,979.9,725,980.2,725.1z"/>
					<path class="st10" d="M1012.4,748.7H630.6c1.3-1.5,2.7-3,4.1-4.5h372.9C1009.2,745.7,1010.8,747.2,1012.4,748.7z"/>
					<path class="st10" d="M1032.3,772.3H614.6l0.7-1.3c0.6-1.1,1.2-2.2,1.8-3.2h412c0.6,0.9,1.3,1.8,1.9,2.6
						C1031.4,771,1031.8,771.6,1032.3,772.3z"/>
					<path class="st10" d="M1045.3,795.8H605.5c0.4-1.5,0.8-3,1.3-4.5h436.5C1044,792.8,1044.7,794.3,1045.3,795.8z"/>
					<path class="st10" d="M1054.3,819.4H601.6c0.1-1.5,0.2-3,0.4-4.5h450.7L1054.3,819.4z"/>
					<polygon class="st10" points="1062.9,843 601.3,843 601.3,838.5 1061.2,838.5 					"/>
					<polygon class="st10" points="1071.4,866.5 601.3,866.5 601.3,862 1069.8,862 					"/>
					<polygon class="st10" points="1080,890.1 634.9,890.1 629.3,886.4 628.1,885.6 1078.4,885.6 					"/>
					<polygon class="st10" points="1088.6,913.6 670.2,913.6 663.5,909.2 1087,909.2 					"/>
					<path class="st10" d="M1096.6,937.2h-391l-5.6-3.8l-1.1-0.7h396.4C1095.8,934.2,1096.2,935.7,1096.6,937.2z"/>
					<path class="st10" d="M1099.6,960.8H741l-6.7-4.5h365.2C1099.6,957.8,1099.6,959.3,1099.6,960.8z"/>
					<path class="st10" d="M1098.1,979.8c-0.3,1.5-0.6,3-0.9,4.5H776.4l-5.7-3.8l-1-0.7L1098.1,979.8z"/>
					<path class="st10" d="M1090.9,1003.4c-0.7,1.5-1.4,3-2.1,4.5h-277l-6.7-4.5H1090.9z"/>
					<path class="st10" d="M1076.6,1027c-1,1.2-2,2.4-3,3.6l-0.8,0.9H847.2l-4.7-3.1l-2-1.4H1076.6z"/>
					<polygon class="st10" points="795.4,707.1 795.4,997 790.9,994 790.9,707.1 					"/>
					<polygon class="st10" points="818.9,707.1 818.9,1012.6 814.4,1009.7 814.4,707.1 					"/>
					<polygon class="st10" points="842.5,707.1 842.5,1028.3 840.4,1027 838,1025.3 838,707.1 					"/>
					<polygon class="st10" points="866,707.1 866,1044 861.6,1041 861.6,707.1 					"/>
					<polygon class="st10" points="889.6,707.1 889.6,1059.7 885.1,1056.7 885.1,707.1 					"/>
					<path class="st10" d="M913.2,707.2v325.4l-4.5,6.6v-332h0.4h2.2h1.7L913.2,707.2z"/>
					<path class="st10" d="M936.7,709.7v338l-4.5-1.4V708.9C933.8,709.1,935.2,709.4,936.7,709.7z"/>
					<path class="st10" d="M960.3,716.2v339l-4.5-1.4V714.6C957.3,715.1,958.8,715.6,960.3,716.2z"/>
					<path class="st10" d="M983.9,727.2v334.5c-1.5-0.3-3-0.6-4.5-0.9V724.7c0.3,0.1,0.5,0.3,0.8,0.4
						C981.4,725.8,982.6,726.5,983.9,727.2z"/>
					<path class="st10" d="M1007.4,744.2V1063c-1.5,0.1-3,0.2-4.5,0.2V740.4C1004.5,741.6,1005.9,742.9,1007.4,744.2z"/>
					<path class="st10" d="M1031,770.4v288.1c-0.7,0.2-1.4,0.5-2.1,0.7l-1.7,0.5l-0.6,0.2V764.4c0.9,1.1,1.8,2.3,2.6,3.4
						C1029.7,768.6,1030.4,769.5,1031,770.4z"/>
					<path class="st10" d="M1054.6,820.1v227.1c-0.7,0.5-1.4,1-2.1,1.4s-1.4,0.8-2,1.2l-0.3,0.2V807.8l2.6,7.1l1.6,4.5L1054.6,820.1
						z"/>
					<path class="st10" d="M1078.1,884.9v140.2c-0.5,0.6-1,1.3-1.5,1.9c-1,1.2-2,2.4-3,3.6v-158L1078.1,884.9z"/>
					<path class="st10" d="M629.3,750.2v136.2l-1.2-0.8l-3.3-2.2V755.9C626.2,753.9,627.7,752,629.3,750.2z"/>
					<path class="st10" d="M652.9,728.6v173.4l-4.5-3V731.9C649.8,730.8,651.3,729.7,652.9,728.6z"/>
					<path class="st10" d="M676.4,715.8v201.9l-4.5-3v-197C673.4,717.1,674.9,716.4,676.4,715.8z"/>
					<path class="st10" d="M700,709v224.4l-1.1-0.7l-3.4-2.3V709.9C697,709.6,698.5,709.3,700,709z"/>
					<path class="st10" d="M723.6,707.1v242l-4.5-3v-239h2.4H723.6z"/>
					<polygon class="st10" points="747.1,707.1 747.1,964.8 742.6,961.8 742.6,707.1 					"/>
					<polygon class="st10" points="770.7,707.1 770.7,980.5 769.7,979.8 766.2,977.5 766.2,707.1 					"/>
					<line class="st11" x1="957.5" y1="914.8" x2="921.3" y2="840.7"/>
				</g>
				<g id="LAPTOP">
					<path class="st7" d="M733.5,926.3H519.8l-41.4-130.4c-2.2-6.9,1.6-14.3,8.6-16.6c1.3-0.4,2.6-0.6,4-0.6h179.8
						c9.5,0,17.8,6.1,20.7,15.1L733.5,926.3z"/>
					<path class="st5" d="M443.9,784.8c0-20.4,16.6-37,37-37l0,0"/>
					<path class="st5" d="M418.7,784.8c0-34.3,27.8-62.1,62.2-62.1"/>
					<path class="st5" d="M394.9,784.8c0-47.5,38.5-86,86-86l0,0"/>
				</g>
				<g id="HAND">
					<path class="st12" d="M1066.9,1041.5c-30.2,36.1-97.5,21.7-116.4,14c-52.8-21.5-121.6-79.9-136.7-89c-4.8-3.8-11.5-4-16.6-0.6
						l-36.8,29.4c-9.5,6.7-19.1,7.1-27.9-0.6l-47.5-40.1l-10.1,5.3c-5.2,2.8-11.2,3.5-16.9,1.9c-4.8-1.6-7.5-6.8-5.9-11.7
						c0.7-2,2-3.8,3.9-4.9l77.4-48.8l0,0c20.1-13.1,43.6-20.2,67.6-20.2h5c13.5,0,27.1,1.3,40.3,3.9l158.9,37.8
						C1055.9,926.3,1118.5,979.8,1066.9,1041.5z"/>
					<line class="st11" x1="685.7" y1="954.7" x2="723.6" y2="931.7"/>
					<line class="st11" x1="704.8" y1="969.3" x2="740.9" y2="947.6"/>
					<line class="st11" x1="723.3" y1="985.4" x2="759.4" y2="963.7"/>
				</g>
				<g id="LEGS">
					<g id="LEGS-2">
						<path id="LEFT" class="st13" d="M893.1,1062l-18.9,21.6c-53.2,60.5-141.9,74.9-211.4,34.1L483,1012.5
							c-6.8-4-15.4-2.5-20.5,3.4l-190.4,220.6l-60.7-48.1c-5.7-4.5-9.9-10.7-12.1-17.6l-6.9-21.8c-3.6-11.5-10.6-21.7-20-29.2
							l-18.2-14.5l232.7-252.6c41.7-45.7,110.5-54.1,161.9-19.8L893.1,1062z"/>
						<path id="RIGHT" class="st13" d="M708.9,1140.6l-159.3-0.4c-9.7,0-17.6,7.8-17.6,17.5c0,0,0,0,0,0.1v219.4h-77.2
							c-7.3,0-14.4-2.2-20.4-6.2l-19-12.7c-10-6.7-21.8-10.3-33.9-10.3h-23.3c0.2-2.5,0.4-5,0.4-7.6v-255.9
							c0-64.2,69.6-104.1,125-71.7L708.9,1140.6z"/>
					</g>
					<g id="SHOES">
						<g id="RIGHT-2">
							<path class="st1" d="M532,1377.1v13.4c0,16.8-13.6,30.4-30.4,30.4h-193l21.7-18.9c15.9-13.8,25.9-33.3,27.8-54.2h23.3
								c12.1,0,23.9,3.6,33.9,10.3l19,12.7c6,4.1,13.2,6.2,20.4,6.2L532,1377.1z"/>
							<path class="st8" d="M532,1377.1v13.4c0,16.8-13.6,30.4-30.4,30.4h-193l21.7-18.9c15.9-13.8,25.9-33.3,27.8-54.2h23.3
								c12.1,0,23.9,3.6,33.9,10.3l19,12.7c6,4.1,13.2,6.2,20.4,6.2L532,1377.1z"/>
							<path class="st8" d="M532,1377.1v7.3c0,0-10.6,23.7-23.7,23.7H323.4l6.9-6c15.9-13.8,25.9-33.3,27.8-54.2h23.3
								c12.1,0,23.9,3.6,33.9,10.3l19,12.7c6,4.1,13.2,6.2,20.4,6.2L532,1377.1z"/>
							<path class="st13" d="M532,1384.4v6.2c0,16.8-13.6,30.4-30.4,30.4h-193l14.8-12.8h184.9C521.4,1408.1,532,1384.4,532,1384.4z
								"/>
						</g>
						<g id="LEFT-2">
							<path class="st1" d="M271.7,1236.6l-8.4,10.5c-10.5,13.1-29.6,15.2-42.7,4.8L69.9,1131.3l28.7-1.2c21.1-0.9,41-9.8,55.6-25
								l18.2,14.5c9.4,7.6,16.4,17.7,20,29.2l6.9,21.8c2.2,6.9,6.4,13.1,12.1,17.6L271.7,1236.6z"/>
							<path class="st8" d="M271.7,1236.6l-8.4,10.5c-10.5,13.1-29.6,15.2-42.7,4.8L69.9,1131.3l28.7-1.2c21.1-0.9,41-9.8,55.6-25
								l18.2,14.5c9.4,7.6,16.4,17.7,20,29.2l6.9,21.8c2.2,6.9,6.4,13.1,12.1,17.6L271.7,1236.6z"/>
							<path class="st8" d="M271.7,1236.6l-4.5,5.7c0,0-23.1,11.9-33.3,3.7L89.4,1130.5l9.1-0.4c21.1-0.9,41-9.8,55.6-25l18.2,14.5
								c9.4,7.6,16.4,17.7,20,29.2l6.9,21.8c2.2,6.9,6.4,13.1,12.1,17.6L271.7,1236.6z"/>
							<path class="st13" d="M267.1,1242.2l-3.9,4.8c-10.5,13.1-29.6,15.2-42.7,4.8L69.9,1131.3l19.6-0.8l144.4,115.4
								C244.1,1254.1,267.1,1242.2,267.1,1242.2z"/>
						</g>
					</g>
				</g>
				<g id="HEAD">
					<g id="NECK">
						<polygon class="st12" points="791.9,754.1 872.5,707.1 845,654 791.9,670.6 						"/>
						<polyline class="st11" points="791.9,671.1 791.9,754.1 872.5,707.1 						"/>
						<path class="st7" d="M791.9,707.8l38.1-23.6c9.3-5.8,15-15.9,15-26.9V654l-53.1,16.6V707.8z"/>
					</g>
					<g id="HEAD-2">
						<path id="HEAD-3" class="st12" d="M860.9,640.8v3.2c0,7.3-5.9,13.3-13.3,13.3h-9.1l-1.8,3.5c-4.7,9.2-13.8,15.2-24.1,15.8
							l-17.6,1c-7.1,0.4-13.1-4.9-13.6-12c0-0.3,0-0.5,0-0.8v-39.3c0-12.1,9.8-21.9,21.9-21.9l0,0h6.7c10.2,0,19,7,21.3,16.9
							l2.7,11.8c2-3,5.4-4.9,9-4.9h4.6C854.9,627.5,860.9,633.5,860.9,640.8C860.9,640.8,860.9,640.8,860.9,640.8z"/>
						<g id="FACE">
							<polyline class="st11" points="782.5,626.5 794.1,626.5 791.7,650.3 798.9,650.3 							"/>
							<line class="st11" x1="807.5" y1="626.4" x2="821.8" y2="627.6"/>
							<path class="st11" d="M848.2,636.3c-4.6,0-8.3,3.7-8.3,8.3l0,0"/>
							<ellipse class="st7" cx="812.5" cy="638.3" rx="2.3" ry="4.1"/>
							<ellipse class="st7" cx="784.5" cy="638.3" rx="2.3" ry="4.1"/>
							<path class="st11" d="M794.2,660.9h5.5c2.5,0,4.9-0.9,6.7-2.5"/>
						</g>
					</g>
					<path id="HAIR" class="st4" d="M855.2,616.7c0,4.1-1.4,8.1-4.1,11.3c-1.1-0.3-2.3-0.5-3.4-0.5H843c-3.6,0-7,1.8-9,4.9
						l-2.7-11.8c-0.7-3.1-2.1-6-4.1-8.6c-1.9,2.3-4.4,4-7.3,5c-1.8,0.6-3.7,0.9-5.6,0.9c-3.6,0-7.1-1.1-10-3.2
						c-3.5-2.4-5.7-6.3-6.2-10.5c-8.3,2-14.7,8.7-16.3,17.2c-8.8-4.1-12.6-14.6-8.5-23.5c4.1-8.8,14.6-12.6,23.5-8.5
						c1.9,0.9,3.7,2.1,5.2,3.7c3.2-3.4,7.7-5.4,12.4-5.3c8.1,0,14.9,5.5,16.1,12.8c2.3-1,4.7-1.6,7.2-1.6
						C847.2,599.1,855.1,607,855.2,616.7z"/>
				</g>
			</g>
			<g id="PLANT">
				<path class="st9" d="M1282.4,1361.4h76.3c7.9,0,14.4,6.4,14.4,14.4v46.3l0,0h-105l0,0v-46.3
					C1268,1367.8,1274.5,1361.4,1282.4,1361.4C1282.4,1361.4,1282.4,1361.4,1282.4,1361.4z"/>
				<path class="st4" d="M1469.4,756.4v87.9c0,17-7.5,33.1-20.4,44.1l0,0c-14.9,12.6-23.5,31.2-23.5,50.7v41.2
					c0,20.5-10.8,39.4-28.5,49.8l0,0c-15.5,9.2-25.1,25.9-25.1,43.9v33.6c0,20.6-11.3,39.6-29.4,49.4l-13.8,7.5V1049
					c0-64.8,20.6-127.8,58.7-180.2L1469.4,756.4z"/>
				<path class="st12" d="M1469.4,756.4v87.9c0,17-7.5,33.1-20.4,44.1c-14.9,12.6-23.5,31.2-23.5,50.7v41.2
					c0,20.5-10.8,39.4-28.5,49.8c-7.6,4.5-14,10.9-18.4,18.6c-2.1,3.7-3.7,7.6-4.8,11.6l-32-99.8c9.9-32.9,25.4-64,45.7-91.8
					L1469.4,756.4z"/>
				<path class="st4" d="M1311.2,1273.9v-44.2c0-76.1-33.4-148.4-91.4-197.7l-57.5-48.9v58.7c0,19.5,10.8,37.5,28,46.7l0,0
					c13.2,7,21.4,20.8,21.4,35.7v11.8c0,20.6,11.4,39.6,29.6,49.3l0,0c8.3,4.4,13.5,13.1,13.5,22.5l0,0c0,26.5,16.2,50.3,40.8,60
					L1311.2,1273.9z"/>
				<path class="st4" d="M1328.7,1361.4v-208.1c-0.1-1.5,1.1-2.8,2.6-2.9c1.5-0.1,2.8,1.1,2.9,2.6c0,0.1,0,0.2,0,0.3v208.1
					L1328.7,1361.4z"/>
				<path class="st4" d="M1305.7,1361.4v-109.9c-0.1-1.5,1.1-2.8,2.6-2.9c1.5-0.1,2.8,1.1,2.9,2.6c0,0.1,0,0.2,0,0.3v109.9H1305.7z"
					/>
				<path class="st4" d="M1345.6,1361.4V1255c0-1.5,1.2-2.8,2.8-2.8s2.8,1.2,2.8,2.8v106.4H1345.6z"/>
				<circle class="st12" cx="1351.6" cy="1246.1" r="11.2"/>
				<circle class="st12" cx="1289.1" cy="1065.5" r="11.2"/>
			</g>
			<g id="CLOCK">
				<circle class="st2" cx="612.4" cy="450.7" r="86.6"/>
				<circle class="st11" cx="603.4" cy="443.9" r="86.6"/>
				<circle class="st4" cx="603.4" cy="375.3" r="5.2"/>
				<circle class="st4" cx="603.4" cy="512.5" r="5.2"/>
				<circle class="st4" cx="534.8" cy="443.9" r="5.2"/>
				<circle class="st4" cx="672" cy="443.9" r="5.2"/>
				<polyline class="st11" points="576.9,421.3 603.2,446.3 633.2,396.8 				"/>
			</g>
		</g>
	</g>
</g>
</svg>
