<?xml version="1.0" encoding="utf-8"?>
<!-- Generator: Adobe Illustrator 25.0.1, SVG Export Plug-In . SVG Version: 6.00 Build 0)  -->
<svg version="1.1" id="Capa_1" xmlns="http://www.w3.org/2000/svg" xmlns:xlink="http://www.w3.org/1999/xlink" x="0px" y="0px"
	 viewBox="0 0 1419 1528.5" style="enable-background:new 0 0 1419 1528.5;" xml:space="preserve">
<style type="text/css">
	.st0{fill:#688BC1;}
	.st1{fill:#FFFFFF;}
	.st2{fill:none;stroke:#A74602;stroke-width:5;stroke-miterlimit:10;}
	.st3{fill:#FFC200;}
	.st4{fill:none;stroke:#FFFFFF;stroke-width:5;stroke-linecap:round;stroke-miterlimit:10;}
	.st5{fill:none;stroke:#F3B304;stroke-width:5;stroke-linecap:round;stroke-miterlimit:10;}
	.st6{fill:#59221D;}
	.st7{fill:none;stroke:#59221D;stroke-width:5;stroke-linecap:round;stroke-linejoin:round;}
	.st8{fill:#F5BBBB;}
	.st9{fill:#FED4C7;}
	.st10{fill:none;stroke:#59221D;stroke-width:4;stroke-linecap:round;stroke-linejoin:round;}
	.st11{fill:#A74602;}
	.st12{fill:#FFFFFF;stroke:#59221D;stroke-width:5;stroke-linejoin:round;}
	.st13{fill:#98C8DB;}
</style>
<g id="Layer_2">
	<g id="Слой_1">
		<g id="CHARACTER">
			<g id="PATTERN-2">
				<circle class="st0" cx="297.7" cy="1433.6" r="5.4"/>
				<circle class="st0" cx="332.1" cy="1433.6" r="5.4"/>
				<circle class="st0" cx="366.4" cy="1433.6" r="5.4"/>
				<circle class="st0" cx="400.7" cy="1433.6" r="5.4"/>
				<circle class="st0" cx="435.1" cy="1433.6" r="5.4"/>
				<circle class="st0" cx="469.4" cy="1433.6" r="5.4"/>
				<circle class="st0" cx="503.7" cy="1433.6" r="5.4"/>
				<circle class="st0" cx="91.7" cy="1433.6" r="5.4"/>
				
					<ellipse transform="matrix(3.327802e-02 -0.9994 0.9994 3.327802e-02 -1310.999 1511.8228)" class="st0" cx="126" cy="1433.6" rx="5.4" ry="5.4"/>
				<circle class="st0" cx="160.4" cy="1433.6" r="5.4"/>
				<circle class="st0" cx="194.7" cy="1433.6" r="5.4"/>
				<circle class="st0" cx="229.1" cy="1433.6" r="5.4"/>
				<circle class="st0" cx="263.4" cy="1433.6" r="5.4"/>
				<circle class="st0" cx="280.6" cy="1451.5" r="5.4"/>
				<circle class="st0" cx="314.9" cy="1451.5" r="5.4"/>
				<circle class="st0" cx="349.2" cy="1451.5" r="5.4"/>
				<circle class="st0" cx="383.6" cy="1451.5" r="5.4"/>
				<circle class="st0" cx="417.9" cy="1451.5" r="5.4"/>
				<circle class="st0" cx="452.2" cy="1451.5" r="5.4"/>
				
					<ellipse transform="matrix(0.9239 -0.3827 0.3827 0.9239 -518.439 296.7249)" class="st0" cx="486.6" cy="1451.5" rx="5.4" ry="5.4"/>
				<circle class="st0" cx="74.5" cy="1451.5" r="5.4"/>
				<circle class="st0" cx="108.9" cy="1451.5" r="5.4"/>
				<circle class="st0" cx="143.2" cy="1451.5" r="5.4"/>
				<circle class="st0" cx="177.5" cy="1451.5" r="5.4"/>
				<circle class="st0" cx="211.9" cy="1451.5" r="5.4"/>
				<circle class="st0" cx="246.2" cy="1451.5" r="5.4"/>
				<circle class="st0" cx="297.7" cy="1469.4" r="5.4"/>
				<circle class="st0" cx="332.1" cy="1469.4" r="5.4"/>
				<circle class="st0" cx="366.4" cy="1469.4" r="5.4"/>
				<circle class="st0" cx="400.7" cy="1469.4" r="5.4"/>
				<circle class="st0" cx="435.1" cy="1469.4" r="5.4"/>
				<circle class="st0" cx="469.4" cy="1469.4" r="5.4"/>
				<circle class="st0" cx="503.7" cy="1469.4" r="5.4"/>
				<circle class="st0" cx="57.4" cy="1469.4" r="5.4"/>
				<circle class="st0" cx="91.7" cy="1469.4" r="5.4"/>
				
					<ellipse transform="matrix(3.327802e-02 -0.9994 0.9994 3.327802e-02 -1346.7792 1546.4315)" class="st0" cx="126" cy="1469.4" rx="5.4" ry="5.4"/>
				<circle class="st0" cx="160.4" cy="1469.4" r="5.4"/>
				<circle class="st0" cx="194.7" cy="1469.4" r="5.4"/>
				<circle class="st0" cx="229.1" cy="1469.4" r="5.4"/>
				<circle class="st0" cx="263.4" cy="1469.4" r="5.4"/>
				<circle class="st0" cx="280.6" cy="1487.3" r="5.4"/>
				<circle class="st0" cx="314.9" cy="1487.3" r="5.4"/>
				<circle class="st0" cx="349.2" cy="1487.3" r="5.4"/>
				<circle class="st0" cx="383.6" cy="1487.3" r="5.4"/>
				<circle class="st0" cx="417.9" cy="1487.3" r="5.4"/>
				<circle class="st0" cx="452.2" cy="1487.3" r="5.4"/>
				
					<ellipse transform="matrix(0.9239 -0.3827 0.3827 0.9239 -532.1395 299.4504)" class="st0" cx="486.6" cy="1487.3" rx="5.4" ry="5.4"/>
				<circle class="st0" cx="74.5" cy="1487.3" r="5.4"/>
				<circle class="st0" cx="40.2" cy="1487.3" r="5.4"/>
				<circle class="st0" cx="108.9" cy="1487.3" r="5.4"/>
				<circle class="st0" cx="143.2" cy="1487.3" r="5.4"/>
				<circle class="st0" cx="177.5" cy="1487.3" r="5.4"/>
				<circle class="st0" cx="211.9" cy="1487.3" r="5.4"/>
				<circle class="st0" cx="246.2" cy="1487.3" r="5.4"/>
				<circle class="st0" cx="297.7" cy="1505.1" r="5.4"/>
				<circle class="st0" cx="332.1" cy="1505.1" r="5.4"/>
				<circle class="st0" cx="366.4" cy="1505.1" r="5.4"/>
				<circle class="st0" cx="400.7" cy="1505.1" r="5.4"/>
				<circle class="st0" cx="435.1" cy="1505.1" r="5.4"/>
				<circle class="st0" cx="469.4" cy="1505.1" r="5.4"/>
				<circle class="st0" cx="503.7" cy="1505.1" r="5.4"/>
				<circle class="st0" cx="91.7" cy="1505.1" r="5.4"/>
				<circle class="st0" cx="57.4" cy="1505.1" r="5.4"/>
				<circle class="st0" cx="23" cy="1505.1" r="5.4"/>
				
					<ellipse transform="matrix(3.327802e-02 -0.9994 0.9994 3.327802e-02 -1382.4594 1580.9435)" class="st0" cx="126" cy="1505.1" rx="5.4" ry="5.4"/>
				<circle class="st0" cx="160.4" cy="1505.1" r="5.4"/>
				<circle class="st0" cx="194.7" cy="1505.1" r="5.4"/>
				<circle class="st0" cx="229.1" cy="1505.1" r="5.4"/>
				<circle class="st0" cx="263.4" cy="1505.1" r="5.4"/>
				<circle class="st0" cx="280.6" cy="1523" r="5.4"/>
				<circle class="st0" cx="314.9" cy="1523" r="5.4"/>
				<circle class="st0" cx="349.2" cy="1523" r="5.4"/>
				<circle class="st0" cx="383.6" cy="1523" r="5.4"/>
				<circle class="st0" cx="417.9" cy="1523" r="5.4"/>
				<circle class="st0" cx="452.2" cy="1523" r="5.4"/>
				
					<ellipse transform="matrix(0.9239 -0.3827 0.3827 0.9239 -545.8018 302.1683)" class="st0" cx="486.6" cy="1523" rx="5.4" ry="5.4"/>
				<circle class="st0" cx="108.9" cy="1523" r="5.4"/>
				<circle class="st0" cx="74.5" cy="1523" r="5.4"/>
				<circle class="st0" cx="40.2" cy="1523" r="5.4"/>
				
					<ellipse transform="matrix(0.9999 -1.020299e-02 1.020299e-02 0.9999 -15.5381 0.1344)" class="st0" cx="5.4" cy="1522.9" rx="5.4" ry="5.4"/>
				<circle class="st0" cx="143.2" cy="1523" r="5.4"/>
				<circle class="st0" cx="177.5" cy="1523" r="5.4"/>
				<circle class="st0" cx="211.9" cy="1523" r="5.4"/>
				<circle class="st0" cx="246.2" cy="1523" r="5.4"/>
				<circle class="st0" cx="812.7" cy="1433.6" r="5.4"/>
				<circle class="st0" cx="847.1" cy="1433.6" r="5.4"/>
				<circle class="st0" cx="881.4" cy="1433.6" r="5.4"/>
				<circle class="st0" cx="915.8" cy="1433.6" r="5.4"/>
				<circle class="st0" cx="950.1" cy="1433.6" r="5.4"/>
				<circle class="st0" cx="984.4" cy="1433.6" r="5.4"/>
				
					<ellipse transform="matrix(0.1602 -0.9871 0.9871 0.1602 -559.4826 2209.6067)" class="st0" cx="1018.8" cy="1433.6" rx="5.4" ry="5.4"/>
				<circle class="st0" cx="572.4" cy="1433.6" r="5.4"/>
				<circle class="st0" cx="538" cy="1433.6" r="5.4"/>
				<circle class="st0" cx="606.7" cy="1433.6" r="5.4"/>
				<circle class="st0" cx="641.1" cy="1433.6" r="5.4"/>
				<circle class="st0" cx="675.4" cy="1433.6" r="5.4"/>
				<circle class="st0" cx="709.7" cy="1433.6" r="5.4"/>
				<circle class="st0" cx="744.1" cy="1433.6" r="5.4"/>
				<circle class="st0" cx="778.4" cy="1433.6" r="5.4"/>
				<circle class="st0" cx="795.6" cy="1451.5" r="5.4"/>
				<circle class="st0" cx="829.9" cy="1451.5" r="5.4"/>
				<circle class="st0" cx="864.2" cy="1451.5" r="5.4"/>
				<circle class="st0" cx="898.6" cy="1451.5" r="5.4"/>
				<circle class="st0" cx="932.9" cy="1451.5" r="5.4"/>
				<circle class="st0" cx="967.3" cy="1451.5" r="5.4"/>
				<circle class="st0" cx="1001.6" cy="1451.5" r="5.4"/>
				<circle class="st0" cx="555.2" cy="1451.5" r="5.4"/>
				<circle class="st0" cx="520.9" cy="1451.5" r="5.4"/>
				<circle class="st0" cx="589.6" cy="1451.5" r="5.4"/>
				<circle class="st0" cx="623.9" cy="1451.5" r="5.4"/>
				<circle class="st0" cx="658.2" cy="1451.5" r="5.4"/>
				<circle class="st0" cx="692.6" cy="1451.5" r="5.4"/>
				<circle class="st0" cx="726.9" cy="1451.5" r="5.4"/>
				<circle class="st0" cx="761.2" cy="1451.5" r="5.4"/>
				<circle class="st0" cx="812.7" cy="1469.4" r="5.4"/>
				<circle class="st0" cx="847.1" cy="1469.4" r="5.4"/>
				<circle class="st0" cx="881.4" cy="1469.4" r="5.4"/>
				<circle class="st0" cx="915.8" cy="1469.4" r="5.4"/>
				<circle class="st0" cx="950.1" cy="1469.4" r="5.4"/>
				<circle class="st0" cx="984.4" cy="1469.4" r="5.4"/>
				
					<ellipse transform="matrix(0.1602 -0.9871 0.9871 0.1602 -594.8204 2239.6721)" class="st0" cx="1018.8" cy="1469.4" rx="5.4" ry="5.4"/>
				<circle class="st0" cx="572.4" cy="1469.4" r="5.4"/>
				<circle class="st0" cx="538" cy="1469.4" r="5.4"/>
				<circle class="st0" cx="606.7" cy="1469.4" r="5.4"/>
				<circle class="st0" cx="641.1" cy="1469.4" r="5.4"/>
				<circle class="st0" cx="675.4" cy="1469.4" r="5.4"/>
				<circle class="st0" cx="709.7" cy="1469.4" r="5.4"/>
				<circle class="st0" cx="744.1" cy="1469.4" r="5.4"/>
				<circle class="st0" cx="778.4" cy="1469.4" r="5.4"/>
				<circle class="st0" cx="795.6" cy="1487.3" r="5.4"/>
				<circle class="st0" cx="829.9" cy="1487.3" r="5.4"/>
				<circle class="st0" cx="864.2" cy="1487.3" r="5.4"/>
				<circle class="st0" cx="898.6" cy="1487.3" r="5.4"/>
				<circle class="st0" cx="932.9" cy="1487.3" r="5.4"/>
				<circle class="st0" cx="967.3" cy="1487.3" r="5.4"/>
				<circle class="st0" cx="1001.6" cy="1487.3" r="5.4"/>
				<circle class="st0" cx="555.2" cy="1487.3" r="5.4"/>
				<circle class="st0" cx="520.9" cy="1487.3" r="5.4"/>
				<circle class="st0" cx="589.6" cy="1487.3" r="5.4"/>
				<circle class="st0" cx="623.9" cy="1487.3" r="5.4"/>
				<circle class="st0" cx="658.2" cy="1487.3" r="5.4"/>
				<circle class="st0" cx="692.6" cy="1487.3" r="5.4"/>
				<circle class="st0" cx="726.9" cy="1487.3" r="5.4"/>
				<circle class="st0" cx="761.2" cy="1487.3" r="5.4"/>
				<circle class="st0" cx="812.7" cy="1505.1" r="5.4"/>
				<circle class="st0" cx="847.1" cy="1505.1" r="5.4"/>
				<circle class="st0" cx="881.4" cy="1505.1" r="5.4"/>
				<circle class="st0" cx="915.8" cy="1505.1" r="5.4"/>
				<circle class="st0" cx="950.1" cy="1505.1" r="5.4"/>
				<circle class="st0" cx="984.4" cy="1505.1" r="5.4"/>
				
					<ellipse transform="matrix(0.1602 -0.9871 0.9871 0.1602 -630.0593 2269.6536)" class="st0" cx="1018.8" cy="1505.1" rx="5.4" ry="5.4"/>
				<circle class="st0" cx="572.4" cy="1505.1" r="5.4"/>
				<circle class="st0" cx="538" cy="1505.1" r="5.4"/>
				<circle class="st0" cx="606.7" cy="1505.1" r="5.4"/>
				<circle class="st0" cx="641.1" cy="1505.1" r="5.4"/>
				<circle class="st0" cx="675.4" cy="1505.1" r="5.4"/>
				<circle class="st0" cx="709.7" cy="1505.1" r="5.4"/>
				<circle class="st0" cx="744.1" cy="1505.1" r="5.4"/>
				<circle class="st0" cx="778.4" cy="1505.1" r="5.4"/>
				<circle class="st0" cx="795.6" cy="1523" r="5.4"/>
				<circle class="st0" cx="829.9" cy="1523" r="5.4"/>
				<circle class="st0" cx="864.2" cy="1523" r="5.4"/>
				<circle class="st0" cx="898.6" cy="1523" r="5.4"/>
				<circle class="st0" cx="932.9" cy="1523" r="5.4"/>
				<circle class="st0" cx="967.3" cy="1523" r="5.4"/>
				<circle class="st0" cx="1001.6" cy="1523" r="5.4"/>
				<circle class="st0" cx="555.2" cy="1523" r="5.4"/>
				<circle class="st0" cx="520.9" cy="1523" r="5.4"/>
				<circle class="st0" cx="589.6" cy="1523" r="5.4"/>
				<circle class="st0" cx="623.9" cy="1523" r="5.4"/>
				<circle class="st0" cx="658.2" cy="1523" r="5.4"/>
				<circle class="st0" cx="692.6" cy="1523" r="5.4"/>
				<circle class="st0" cx="726.9" cy="1523" r="5.4"/>
				<circle class="st0" cx="761.2" cy="1523" r="5.4"/>
				<circle class="st0" cx="1052.6" cy="1433.6" r="5.4"/>
				<path class="st0" d="M1087,1428.1c3,0,5.5,2.4,5.5,5.4s-2.4,5.4-5.5,5.4s-5.4-2.4-5.4-5.4S1083.9,1428.1,1087,1428.1z"/>
				<circle class="st0" cx="1121.3" cy="1433.6" r="5.5"/>
				<circle class="st0" cx="1155.6" cy="1433.6" r="5.5"/>
				<circle class="st0" cx="1190" cy="1433.6" r="5.5"/>
				<circle class="st0" cx="1224.3" cy="1433.6" r="5.5"/>
				<circle class="st0" cx="1258.6" cy="1433.6" r="5.5"/>
				<circle class="st0" cx="1275.8" cy="1451.5" r="5.5"/>
				<circle class="st0" cx="1035.5" cy="1451.5" r="5.4"/>
				<circle class="st0" cx="1069.8" cy="1451.5" r="5.4"/>
				<circle class="st0" cx="1104.1" cy="1451.5" r="5.5"/>
				<circle class="st0" cx="1138.5" cy="1451.5" r="5.5"/>
				<circle class="st0" cx="1172.8" cy="1451.5" r="5.5"/>
				<circle class="st0" cx="1207.1" cy="1451.5" r="5.5"/>
				<circle class="st0" cx="1241.5" cy="1451.5" r="5.5"/>
				<circle class="st0" cx="1293" cy="1469.4" r="5.5"/>
				<circle class="st0" cx="1052.6" cy="1469.4" r="5.4"/>
				<path class="st0" d="M1087,1463.9c3,0,5.5,2.4,5.5,5.4s-2.4,5.4-5.5,5.4s-5.4-2.4-5.4-5.4S1083.9,1463.9,1087,1463.9z"/>
				<circle class="st0" cx="1121.3" cy="1469.4" r="5.5"/>
				<circle class="st0" cx="1155.6" cy="1469.4" r="5.5"/>
				<circle class="st0" cx="1190" cy="1469.4" r="5.5"/>
				<circle class="st0" cx="1224.3" cy="1469.4" r="5.5"/>
				<circle class="st0" cx="1258.6" cy="1469.4" r="5.5"/>
				<circle class="st0" cx="1275.8" cy="1487.3" r="5.5"/>
				<circle class="st0" cx="1310.1" cy="1487.3" r="5.5"/>
				<circle class="st0" cx="1035.5" cy="1487.3" r="5.4"/>
				<circle class="st0" cx="1069.8" cy="1487.3" r="5.4"/>
				<circle class="st0" cx="1104.1" cy="1487.3" r="5.5"/>
				<circle class="st0" cx="1138.5" cy="1487.3" r="5.5"/>
				<circle class="st0" cx="1172.8" cy="1487.3" r="5.5"/>
				<circle class="st0" cx="1207.1" cy="1487.3" r="5.5"/>
				<circle class="st0" cx="1241.5" cy="1487.3" r="5.5"/>
				<circle class="st0" cx="1293" cy="1505.1" r="5.5"/>
				<circle class="st0" cx="1327.3" cy="1505.1" r="5.5"/>
				<circle class="st0" cx="1052.6" cy="1505.1" r="5.4"/>
				<path class="st0" d="M1087,1499.7c3,0,5.5,2.4,5.5,5.4s-2.4,5.4-5.5,5.4s-5.4-2.4-5.4-5.4S1083.9,1499.7,1087,1499.7z"/>
				<circle class="st0" cx="1121.3" cy="1505.1" r="5.5"/>
				<circle class="st0" cx="1155.6" cy="1505.1" r="5.5"/>
				<circle class="st0" cx="1190" cy="1505.1" r="5.5"/>
				<circle class="st0" cx="1224.3" cy="1505.1" r="5.5"/>
				<circle class="st0" cx="1258.6" cy="1505.1" r="5.5"/>
				<circle class="st0" cx="1275.8" cy="1523" r="5.5"/>
				<circle class="st0" cx="1310.1" cy="1523" r="5.5"/>
				<circle class="st0" cx="1344.5" cy="1523" r="5.5"/>
				<circle class="st0" cx="1035.5" cy="1523" r="5.4"/>
				<circle class="st0" cx="1069.8" cy="1523" r="5.4"/>
				<circle class="st0" cx="1104.1" cy="1523" r="5.5"/>
				<circle class="st0" cx="1138.5" cy="1523" r="5.5"/>
				<circle class="st0" cx="1172.8" cy="1523" r="5.5"/>
				<circle class="st0" cx="1207.1" cy="1523" r="5.5"/>
				<circle class="st0" cx="1241.5" cy="1523" r="5.5"/>
				<circle class="st0" cx="1293.3" cy="1433.6" r="5.5"/>
				<circle class="st0" cx="1327.7" cy="1433.6" r="5.5"/>
				<circle class="st0" cx="1344.8" cy="1451.5" r="5.5"/>
				<circle class="st0" cx="1310.5" cy="1451.5" r="5.5"/>
				<circle class="st0" cx="1362" cy="1469.4" r="5.5"/>
				<circle class="st0" cx="1327.7" cy="1469.4" r="5.5"/>
				<circle class="st0" cx="1344.8" cy="1487.3" r="5.5"/>
				<circle class="st0" cx="1379.2" cy="1487.3" r="5.5"/>
				<circle class="st0" cx="1362" cy="1505.1" r="5.5"/>
				<circle class="st0" cx="1396.3" cy="1505.1" r="5.5"/>
				<circle class="st0" cx="1379.2" cy="1523" r="5.5"/>
				<circle class="st0" cx="1413.5" cy="1523" r="5.5"/>
			</g>
			<polygon id="BACKGROUND-2" class="st0" points="117.4,379.8 709.1,71.1 1301.6,379.8 1301.6,1419.8 117.4,1419.8 			"/>
			<g id="LAMP">
				<polygon class="st1" points="935.7,390.8 1266.4,1420.9 321.8,1420.9 715.2,390.8 				"/>
				<line class="st2" x1="824.6" y1="390.8" x2="824.6" y2="1420.9"/>
				<polygon class="st3" points="935.7,390.8 715.2,390.8 748.8,289.5 902,289.5 				"/>
				<line class="st4" x1="752.4" y1="277.2" x2="898.5" y2="277.2"/>
				<line class="st2" x1="890.3" y1="390.8" x2="890.3" y2="516.3"/>
				<circle class="st5" cx="890.2" cy="524.1" r="8.4"/>
			</g>
			<g id="CHARACTER-2">
				<g id="CHAIR">
					<path class="st6" d="M978.7,1153.1c-9.4,17.5-27.7,28.3-47.5,28.3h-331v-42.3h59.6l83-188.8c8.9-20.2,28.9-33.3,51-33.3h210.8
						c41.1,0,68.1,43,50.2,80L978.7,1153.1z"/>
					<line class="st7" x1="905.9" y1="1181.4" x2="996.3" y2="1418.9"/>
					<line class="st7" x1="705" y1="1181.4" x2="614.6" y2="1418.9"/>
				</g>
				<g id="SHIRT">
					<path class="st8" d="M669.4,866.7v-40.4c0-66.4,53.8-120.2,120.2-120.2h187.6c62.7,0,118.6,39.2,140.1,98.1l44.2,121.5
						c14.6,40.2,2.8,81.6-24.1,108.6c-25.6,25.7-63.7,34.3-98.3,23.4l-57.6-26.3l-20.2,29.7L669.4,866.7z"/>
					<path class="st9" d="M1048.3,724.2h-322c2.6-1.6,5.2-3.1,7.9-4.5h305.2c2.8,1.3,5.5,2.6,8.2,4.1
						C1047.8,723.9,1048,724,1048.3,724.2z"/>
					<path class="st9" d="M1080.5,747.7H698.7c1.3-1.5,2.7-3,4.1-4.5h372.9C1077.3,744.7,1078.9,746.2,1080.5,747.7z"/>
					<path class="st9" d="M1100.4,771.3H682.7l0.7-1.3c0.6-1.1,1.2-2.2,1.8-3.2h412c0.6,0.9,1.3,1.8,1.9,2.6
						C1099.6,770,1100,770.6,1100.4,771.3z"/>
					<path class="st9" d="M1113.5,794.8H673.6c0.4-1.5,0.8-3,1.3-4.5h436.5C1112.1,791.8,1112.8,793.3,1113.5,794.8z"/>
					<path class="st9" d="M1122.4,818.4H669.7c0.1-1.5,0.2-3,0.4-4.5h450.7L1122.4,818.4z"/>
					<polygon class="st9" points="1131,842 669.4,842 669.4,837.5 1129.4,837.5 					"/>
					<polygon class="st9" points="1139.6,865.5 669.4,865.5 669.4,861 1137.9,861 					"/>
					<polygon class="st9" points="1148.1,889.1 703,889.1 697.4,885.4 696.3,884.6 1146.5,884.6 					"/>
					<polygon class="st9" points="1156.7,912.7 738.4,912.7 731.6,908.2 1155.1,908.2 					"/>
					<path class="st9" d="M1164.7,936.2H773.8l-5.6-3.8l-1.1-0.7h396.4C1163.9,933.2,1164.3,934.7,1164.7,936.2z"/>
					<path class="st9" d="M1167.8,959.8H809.2l-6.7-4.5h365.2C1167.7,956.8,1167.7,958.3,1167.8,959.8z"/>
					<path class="st9" d="M1166.2,978.9c-0.3,1.5-0.6,3-0.9,4.5H844.5l-5.7-3.8l-1-0.7H1166.2z"/>
					<path class="st9" d="M1159.1,1002.4c-0.7,1.5-1.4,3-2.1,4.5H880l-6.7-4.5H1159.1z"/>
					<path class="st9" d="M1144.8,1026c-1,1.2-2,2.4-3,3.6l-0.8,0.9H915.3l-4.7-3.1l-2-1.4H1144.8z"/>
					<polygon class="st9" points="863.5,706.1 863.5,996 859,993 859,706.1 					"/>
					<polygon class="st9" points="887.1,706.1 887.1,1011.7 882.6,1008.7 882.6,706.1 					"/>
					<polygon class="st9" points="910.6,706.1 910.6,1027.3 908.6,1026 906.1,1024.4 906.1,706.1 					"/>
					<polygon class="st9" points="934.2,706.1 934.2,1043 929.7,1040 929.7,706.1 					"/>
					<polygon class="st9" points="957.7,706.1 957.7,1058.7 953.3,1055.7 953.3,706.1 					"/>
					<path class="st9" d="M981.3,706.2v325.4l-4.5,6.6v-332h0.4h2.2h1.7L981.3,706.2z"/>
					<path class="st9" d="M1004.9,708.7v338l-4.5-1.4V707.9C1001.9,708.2,1003.4,708.4,1004.9,708.7z"/>
					<path class="st9" d="M1028.4,715.2v339l-4.5-1.4V713.6C1025.5,714.1,1027,714.6,1028.4,715.2z"/>
					<path class="st9" d="M1052,726.2v334.5c-1.5-0.3-3-0.6-4.5-0.9V723.7c0.3,0.1,0.5,0.3,0.8,0.4
						C1049.5,724.8,1050.8,725.5,1052,726.2z"/>
					<path class="st9" d="M1075.6,743.2v318.9c-1.5,0.1-3,0.2-4.5,0.2V739.4C1072.6,740.6,1074.1,741.9,1075.6,743.2z"/>
					<path class="st9" d="M1099.1,769.4v288.1c-0.7,0.2-1.4,0.5-2.1,0.7l-1.7,0.5l-0.6,0.2V763.4c0.9,1.1,1.8,2.3,2.6,3.4
						C1097.9,767.7,1098.5,768.5,1099.1,769.4z"/>
					<path class="st9" d="M1122.7,819.1v227.1c-0.7,0.5-1.4,1-2.1,1.4s-1.4,0.8-2,1.2l-0.3,0.2V806.8l2.6,7.1l1.6,4.5L1122.7,819.1z
						"/>
					<path class="st9" d="M1146.3,883.9v140.2c-0.5,0.6-1,1.3-1.5,1.9c-1,1.2-2,2.4-3,3.6v-158L1146.3,883.9z"/>
					<path class="st9" d="M697.4,749.2v136.2l-1.2-0.8l-3.3-2.2V754.9C694.4,753,695.9,751.1,697.4,749.2z"/>
					<path class="st9" d="M721,727.6V901l-4.5-3V730.9C718,729.8,719.5,728.7,721,727.6z"/>
					<path class="st9" d="M744.6,714.9v201.9l-4.5-3v-197C741.6,716.1,743,715.5,744.6,714.9z"/>
					<path class="st9" d="M768.1,708v224.4l-1.1-0.7l-3.4-2.3V708.9C765.1,708.6,766.6,708.3,768.1,708z"/>
					<path class="st9" d="M791.7,706.1v242l-4.5-3v-239h2.4H791.7z"/>
					<polygon class="st9" points="815.3,706.1 815.3,963.8 810.8,960.9 810.8,706.1 					"/>
					<polygon class="st9" points="838.8,706.1 838.8,979.5 837.8,978.9 834.3,976.5 834.3,706.1 					"/>
					<line class="st10" x1="1025.7" y1="913.9" x2="989.5" y2="839.7"/>
				</g>
				<g id="LAPTOP">
					<path class="st6" d="M801.6,925.3H587.9l-41.4-130.4c-2.2-6.9,1.6-14.3,8.6-16.6c1.3-0.4,2.6-0.6,4-0.6h179.8
						c9.5,0,17.8,6.1,20.7,15.1L801.6,925.3z"/>
					<path class="st4" d="M512,783.8c0-20.4,16.6-37,37-37l0,0"/>
					<path class="st4" d="M486.9,783.8c0-34.3,27.8-62.1,62.2-62.1"/>
					<path class="st4" d="M463,783.8c0-47.5,38.5-86,86-86l0,0"/>
				</g>
				<g id="HAND">
					<path class="st11" d="M1135,1040.5c-30.2,36.1-97.5,21.7-116.4,14c-52.8-21.5-121.6-79.9-136.7-89c-4.8-3.8-11.5-4-16.6-0.6
						l-36.8,29.4c-9.5,6.7-19.1,7.1-27.9-0.6l-47.5-40.1l-10.1,5.3c-5.2,2.8-11.2,3.5-16.9,1.9c-4.8-1.6-7.5-6.8-5.9-11.7
						c0.7-2,2-3.8,3.9-4.9l77.4-48.8l0,0c20.1-13.1,43.6-20.2,67.6-20.2h5c13.5,0,27.1,1.3,40.3,3.9l158.9,37.8
						C1124,925.3,1186.6,978.9,1135,1040.5z"/>
					<line class="st10" x1="753.8" y1="953.8" x2="791.8" y2="930.7"/>
					<line class="st10" x1="773" y1="968.3" x2="809" y2="946.7"/>
					<line class="st10" x1="791.4" y1="984.4" x2="827.5" y2="962.8"/>
				</g>
				<g id="LEGS">
					<g id="LEGS-2">
						<path id="LEFT" class="st12" d="M961.2,1061l-18.9,21.6c-53.2,60.5-141.9,74.9-211.4,34.1l-179.7-105.2
							c-6.8-4-15.4-2.5-20.5,3.4l-190.4,220.6l-60.7-48.1c-5.7-4.5-9.9-10.7-12.1-17.6l-6.9-21.8c-3.6-11.5-10.6-21.7-20-29.2
							l-18.2-14.5l232.7-252.6c41.7-45.7,110.5-54.1,161.9-19.8L961.2,1061z"/>
						<path id="RIGHT" class="st12" d="M777,1139.6l-159.3-0.4c-9.7,0-17.6,7.8-17.6,17.5c0,0,0,0,0,0.1v219.4h-77.2
							c-7.3,0-14.4-2.2-20.4-6.2l-19-12.7c-10-6.7-21.8-10.3-33.9-10.3h-23.3c0.2-2.5,0.4-5,0.4-7.6v-255.9
							c0-64.2,69.6-104.1,125-71.7L777,1139.6z"/>
					</g>
					<g id="SHOES">
						<g id="RIGHT-2">
							<path class="st13" d="M600.2,1376.1v13.4c0,16.8-13.6,30.4-30.4,30.4h-193l21.7-18.9c15.9-13.8,25.9-33.3,27.8-54.2h23.3
								c12.1,0,23.9,3.6,33.9,10.3l19,12.7c6,4.1,13.2,6.2,20.4,6.2L600.2,1376.1z"/>
							<path class="st7" d="M600.2,1376.1v13.4c0,16.8-13.6,30.4-30.4,30.4h-193l21.7-18.9c15.9-13.8,25.9-33.3,27.8-54.2h23.3
								c12.1,0,23.9,3.6,33.9,10.3l19,12.7c6,4.1,13.2,6.2,20.4,6.2L600.2,1376.1z"/>
							<path class="st7" d="M600.2,1376.1v7.3c0,0-10.6,23.7-23.7,23.7H391.6l6.9-6c15.9-13.8,25.9-33.3,27.8-54.2h23.3
								c12.1,0,23.9,3.6,33.9,10.3l19,12.7c6,4.1,13.2,6.2,20.4,6.2H600.2z"/>
							<path class="st12" d="M600.2,1383.4v6.2c0,16.8-13.6,30.4-30.4,30.4h-193l14.8-12.8h184.9
								C589.6,1407.1,600.2,1383.4,600.2,1383.4z"/>
						</g>
						<g id="LEFT-2">
							<path class="st13" d="M339.8,1235.6l-8.4,10.5c-10.5,13.1-29.6,15.2-42.7,4.8l-150.8-120.5l28.7-1.2c21.1-0.9,41-9.8,55.6-25
								l18.2,14.5c9.4,7.6,16.4,17.7,20,29.2l6.9,21.8c2.2,6.9,6.4,13.1,12.1,17.6L339.8,1235.6z"/>
							<path class="st7" d="M339.8,1235.6l-8.4,10.5c-10.5,13.1-29.6,15.2-42.7,4.8l-150.8-120.5l28.7-1.2c21.1-0.9,41-9.8,55.6-25
								l18.2,14.5c9.4,7.6,16.4,17.7,20,29.2l6.9,21.8c2.2,6.9,6.4,13.1,12.1,17.6L339.8,1235.6z"/>
							<path class="st7" d="M339.8,1235.6l-4.5,5.7c0,0-23.1,11.9-33.3,3.7l-144.4-115.4l9.1-0.4c21.1-0.9,41-9.8,55.6-25l18.2,14.5
								c9.4,7.6,16.4,17.7,20,29.2l6.9,21.8c2.2,6.9,6.4,13.1,12.1,17.6L339.8,1235.6z"/>
							<path class="st12" d="M335.3,1241.3l-3.9,4.8c-10.5,13.1-29.6,15.2-42.7,4.8l-150.8-120.5l19.6-0.8L302,1245
								C312.2,1253.1,335.3,1241.3,335.3,1241.3z"/>
						</g>
					</g>
				</g>
				<g id="HEAD">
					<g id="NECK">
						<polygon class="st11" points="860,753.1 940.6,706.1 913.2,653 860,669.6 						"/>
						<polyline class="st10" points="860,670.1 860,753.1 940.6,706.1 						"/>
						<path class="st6" d="M860,706.8l38.1-23.6c9.3-5.8,15-15.9,15-26.9V653L860,669.6V706.8z"/>
					</g>
					<g id="HEAD-2">
						<path id="HEAD-3" class="st11" d="M929,639.9v3.2c0,7.3-5.9,13.3-13.3,13.3h-9.1l-1.8,3.5c-4.7,9.2-13.8,15.2-24.1,15.8
							l-17.6,1c-7.1,0.4-13.1-4.9-13.6-12c0-0.3,0-0.5,0-0.8v-39.3c0-12.1,9.8-21.9,21.9-21.9l0,0h6.7c10.2,0,19,7,21.3,16.9
							l2.7,11.8c2-3,5.4-4.9,9-4.9h4.6C923.1,626.6,929,632.5,929,639.9C929,639.8,929,639.9,929,639.9z"/>
						<g id="FACE">
							<polyline class="st10" points="850.6,625.5 862.2,625.5 859.8,649.3 867.1,649.3 							"/>
							<line class="st10" x1="875.6" y1="625.5" x2="890" y2="626.6"/>
							<path class="st10" d="M916.3,635.4c-4.6,0-8.3,3.7-8.3,8.3l0,0"/>
							<ellipse class="st6" cx="880.7" cy="637.3" rx="2.3" ry="4.1"/>
							<ellipse class="st6" cx="852.6" cy="637.3" rx="2.3" ry="4.1"/>
							<path class="st10" d="M862.3,659.9h5.5c2.5,0,4.9-0.9,6.7-2.5"/>
						</g>
					</g>
					<path id="HAIR" class="st3" d="M923.3,615.7c0,4.1-1.4,8.1-4.1,11.3c-1.1-0.3-2.3-0.5-3.4-0.5h-4.6c-3.6,0-7,1.8-9,4.9
						l-2.7-11.8c-0.7-3.1-2.1-6-4.1-8.6c-1.9,2.3-4.4,4-7.3,5c-1.8,0.6-3.7,0.9-5.6,0.9c-3.6,0-7.1-1.1-10-3.2
						c-3.5-2.4-5.7-6.3-6.2-10.5c-8.3,2-14.7,8.7-16.3,17.2c-8.8-4.1-12.6-14.6-8.5-23.5c4.1-8.8,14.6-12.6,23.5-8.5
						c1.9,0.9,3.7,2.1,5.2,3.7c3.2-3.4,7.7-5.4,12.4-5.3c8.1,0,14.9,5.5,16.1,12.8c2.3-1,4.7-1.6,7.2-1.6
						C915.4,598.1,923.3,606,923.3,615.7z"/>
				</g>
			</g>
			<g id="PLANT">
				<path class="st8" d="M1059.3,1361.4h76.3c7.9,0,14.4,6.4,14.4,14.4v46.3l0,0h-105l0,0v-46.3
					C1044.9,1367.8,1051.3,1361.4,1059.3,1361.4L1059.3,1361.4z"/>
				<path class="st3" d="M1246.3,756.4v87.9c0,17-7.5,33.1-20.4,44.1l0,0c-14.9,12.6-23.5,31.2-23.5,50.7v41.2
					c0,20.5-10.8,39.4-28.5,49.8l0,0c-15.5,9.2-25.1,25.9-25.1,43.9v33.6c0,20.6-11.3,39.6-29.4,49.4l-13.8,7.5V1049
					c0-64.8,20.6-127.8,58.7-180.2L1246.3,756.4z"/>
				<path class="st11" d="M1246.3,756.4v87.9c0,17-7.5,33.1-20.4,44.1c-14.9,12.6-23.5,31.2-23.5,50.7v41.2
					c0,20.5-10.8,39.4-28.5,49.8c-7.6,4.5-14,10.9-18.4,18.6c-2.1,3.7-3.7,7.6-4.8,11.6l-32-99.8c9.9-32.9,25.4-64,45.7-91.8
					L1246.3,756.4z"/>
				<path class="st3" d="M1088,1273.9v-44.2c0-76.1-33.4-148.4-91.4-197.7l-57.4-49v58.7c0,19.5,10.8,37.5,28,46.7l0,0
					c13.2,7,21.4,20.8,21.4,35.7v11.8c0,20.6,11.4,39.6,29.6,49.3l0,0c8.3,4.4,13.5,13.1,13.5,22.5l0,0c0,26.5,16.2,50.3,40.8,60
					L1088,1273.9z"/>
				<path class="st3" d="M1105.5,1361.4v-208.1c-0.1-1.5,1.1-2.8,2.6-2.9s2.8,1.1,2.9,2.6c0,0.1,0,0.2,0,0.3v208.1H1105.5z"/>
				<path class="st3" d="M1082.5,1361.4v-109.9c-0.1-1.5,1.1-2.8,2.6-2.9s2.8,1.1,2.9,2.6c0,0.1,0,0.2,0,0.3v109.9H1082.5z"/>
				<path class="st3" d="M1122.4,1361.4V1255c0-1.5,1.2-2.8,2.8-2.8s2.8,1.2,2.8,2.8v106.4H1122.4z"/>
				<circle class="st11" cx="1128.4" cy="1246.1" r="11.2"/>
				<circle class="st11" cx="1066" cy="1065.5" r="11.2"/>
			</g>
			<g id="CLOCK">
				<circle class="st1" cx="389.3" cy="450.7" r="86.6"/>
				<circle class="st10" cx="380.3" cy="443.9" r="86.6"/>
				<circle class="st3" cx="380.3" cy="375.3" r="5.2"/>
				<circle class="st3" cx="380.3" cy="512.5" r="5.2"/>
				<circle class="st3" cx="311.7" cy="443.9" r="5.2"/>
				<circle class="st3" cx="448.9" cy="443.9" r="5.2"/>
				<polyline class="st10" points="353.7,421.3 380.1,446.3 410.1,396.8 				"/>
			</g>
		</g>
	</g>
</g>
</svg>
